<mxfile host="app.diagrams.net" agent="Mozilla/5.0 (Windows NT 10.0; Win64; x64) AppleWebKit/537.36 (KHTML, like Gecko) Chrome/132.0.0.0 Safari/537.36 Edg/132.0.0.0" version="26.0.11" pages="6">
  <diagram name="full" id="e2o4plj3u_6KIa59DkHf">
    <mxGraphModel dx="2852" dy="1562" grid="1" gridSize="10" guides="1" tooltips="1" connect="1" arrows="1" fold="1" page="1" pageScale="1" pageWidth="2336" pageHeight="1654" background="#FFFFFF" math="0" shadow="0">
      <root>
        <mxCell id="0" />
        <mxCell id="1" parent="0" />
        <mxCell id="23E2Oul6b77h04xw3kFd-1" style="edgeStyle=orthogonalEdgeStyle;shape=connector;curved=0;rounded=1;orthogonalLoop=1;jettySize=auto;html=1;entryX=0;entryY=0.5;entryDx=0;entryDy=0;strokeColor=default;align=center;verticalAlign=middle;fontFamily=Helvetica;fontSize=11;fontColor=default;labelBackgroundColor=default;endArrow=none;endFill=0;" edge="1" parent="1" source="23E2Oul6b77h04xw3kFd-6" target="23E2Oul6b77h04xw3kFd-8">
          <mxGeometry relative="1" as="geometry" />
        </mxCell>
        <mxCell id="23E2Oul6b77h04xw3kFd-2" style="edgeStyle=orthogonalEdgeStyle;rounded=0;orthogonalLoop=1;jettySize=auto;html=1;endArrow=block;endFill=0;" edge="1" parent="1" source="23E2Oul6b77h04xw3kFd-6">
          <mxGeometry relative="1" as="geometry">
            <mxPoint x="1635.5" y="830" as="targetPoint" />
          </mxGeometry>
        </mxCell>
        <mxCell id="23E2Oul6b77h04xw3kFd-3" style="edgeStyle=orthogonalEdgeStyle;rounded=1;orthogonalLoop=1;jettySize=auto;html=1;entryX=0;entryY=0.5;entryDx=0;entryDy=0;curved=0;endArrow=none;endFill=0;" edge="1" parent="1" source="23E2Oul6b77h04xw3kFd-6" target="23E2Oul6b77h04xw3kFd-10">
          <mxGeometry relative="1" as="geometry" />
        </mxCell>
        <mxCell id="23E2Oul6b77h04xw3kFd-4" style="edgeStyle=orthogonalEdgeStyle;shape=connector;curved=0;rounded=1;orthogonalLoop=1;jettySize=auto;html=1;entryX=0;entryY=0.5;entryDx=0;entryDy=0;strokeColor=default;align=center;verticalAlign=middle;fontFamily=Helvetica;fontSize=11;fontColor=default;labelBackgroundColor=default;endArrow=none;endFill=0;" edge="1" parent="1" source="23E2Oul6b77h04xw3kFd-6" target="23E2Oul6b77h04xw3kFd-14">
          <mxGeometry relative="1" as="geometry" />
        </mxCell>
        <mxCell id="23E2Oul6b77h04xw3kFd-5" style="edgeStyle=orthogonalEdgeStyle;shape=connector;curved=0;rounded=1;orthogonalLoop=1;jettySize=auto;html=1;entryX=0;entryY=0.5;entryDx=0;entryDy=0;strokeColor=default;align=center;verticalAlign=middle;fontFamily=Helvetica;fontSize=11;fontColor=default;labelBackgroundColor=default;endArrow=none;endFill=0;" edge="1" parent="1" source="23E2Oul6b77h04xw3kFd-6" target="23E2Oul6b77h04xw3kFd-12">
          <mxGeometry relative="1" as="geometry" />
        </mxCell>
        <mxCell id="23E2Oul6b77h04xw3kFd-6" value="Analista" style="shape=umlActor;verticalLabelPosition=bottom;verticalAlign=top;html=1;outlineConnect=0;" vertex="1" parent="1">
          <mxGeometry x="1621" y="895" width="29" height="60" as="geometry" />
        </mxCell>
        <mxCell id="23E2Oul6b77h04xw3kFd-7" value="&amp;lt;&amp;lt;include&amp;gt;&amp;gt;" style="edgeStyle=orthogonalEdgeStyle;shape=connector;curved=0;rounded=1;orthogonalLoop=1;jettySize=auto;html=1;entryX=0;entryY=0.5;entryDx=0;entryDy=0;strokeColor=default;align=center;verticalAlign=middle;fontFamily=Helvetica;fontSize=11;fontColor=default;labelBackgroundColor=default;endArrow=open;endFill=0;dashed=1;dashPattern=12 12;fontStyle=2" edge="1" parent="1" source="23E2Oul6b77h04xw3kFd-8" target="23E2Oul6b77h04xw3kFd-9">
          <mxGeometry relative="1" as="geometry" />
        </mxCell>
        <mxCell id="23E2Oul6b77h04xw3kFd-8" value="Analizzare storico dei dati" style="ellipse;whiteSpace=wrap;html=1;fontFamily=Helvetica;fontSize=11;fontColor=default;labelBackgroundColor=default;" vertex="1" parent="1">
          <mxGeometry x="1770" y="890" width="139" height="70" as="geometry" />
        </mxCell>
        <mxCell id="23E2Oul6b77h04xw3kFd-9" value="Visualizzare&lt;span style=&quot;background-color: light-dark(#ffffff, var(--ge-dark-color, #121212)); color: light-dark(rgb(0, 0, 0), rgb(255, 255, 255));&quot;&gt;&amp;nbsp;grafici&lt;/span&gt;&lt;div&gt;&lt;div&gt;degli attributi&lt;/div&gt;&lt;/div&gt;" style="ellipse;whiteSpace=wrap;html=1;fontFamily=Helvetica;fontSize=11;fontColor=default;labelBackgroundColor=default;" vertex="1" parent="1">
          <mxGeometry x="1990" y="890" width="139" height="70" as="geometry" />
        </mxCell>
        <mxCell id="23E2Oul6b77h04xw3kFd-10" value="Interagire con la tabella" style="ellipse;whiteSpace=wrap;html=1;fontFamily=Helvetica;fontSize=11;fontColor=default;labelBackgroundColor=default;" vertex="1" parent="1">
          <mxGeometry x="1770" y="1010" width="139" height="70" as="geometry" />
        </mxCell>
        <mxCell id="23E2Oul6b77h04xw3kFd-11" value="Utente Non Loggato" style="shape=umlActor;verticalLabelPosition=bottom;verticalAlign=top;html=1;outlineConnect=0;" vertex="1" parent="1">
          <mxGeometry x="1621" y="750" width="29" height="60" as="geometry" />
        </mxCell>
        <mxCell id="23E2Oul6b77h04xw3kFd-12" value="Eseguire logout" style="ellipse;whiteSpace=wrap;html=1;fontFamily=Helvetica;fontSize=11;fontColor=default;labelBackgroundColor=default;" vertex="1" parent="1">
          <mxGeometry x="1770" y="1130" width="139" height="70" as="geometry" />
        </mxCell>
        <mxCell id="23E2Oul6b77h04xw3kFd-13" value="&amp;lt;&amp;lt;include&amp;gt;&amp;gt;" style="edgeStyle=orthogonalEdgeStyle;shape=connector;curved=0;rounded=1;orthogonalLoop=1;jettySize=auto;html=1;strokeColor=default;align=center;verticalAlign=middle;fontFamily=Helvetica;fontSize=11;fontColor=default;labelBackgroundColor=default;endArrow=open;endFill=0;fontStyle=2;dashed=1;dashPattern=12 12;" edge="1" parent="1" source="23E2Oul6b77h04xw3kFd-14" target="23E2Oul6b77h04xw3kFd-15">
          <mxGeometry relative="1" as="geometry" />
        </mxCell>
        <mxCell id="23E2Oul6b77h04xw3kFd-14" value="Visualizzzare&amp;nbsp;&lt;div&gt;attributi completi&lt;/div&gt;" style="ellipse;whiteSpace=wrap;html=1;fontFamily=Helvetica;fontSize=11;fontColor=default;labelBackgroundColor=default;" vertex="1" parent="1">
          <mxGeometry x="1770" y="770" width="139" height="70" as="geometry" />
        </mxCell>
        <mxCell id="23E2Oul6b77h04xw3kFd-15" value="Selezionare&lt;div&gt;categoria&amp;nbsp;&lt;span style=&quot;background-color: light-dark(#ffffff, var(--ge-dark-color, #121212)); color: light-dark(rgb(0, 0, 0), rgb(255, 255, 255));&quot;&gt;di attributi&lt;/span&gt;&lt;/div&gt;" style="ellipse;whiteSpace=wrap;html=1;fontFamily=Helvetica;fontSize=11;fontColor=default;labelBackgroundColor=default;" vertex="1" parent="1">
          <mxGeometry x="1990" y="770" width="139" height="70" as="geometry" />
        </mxCell>
        <mxCell id="vzzJvYFb9WrTzv0klFdv-1" style="edgeStyle=orthogonalEdgeStyle;shape=connector;curved=0;rounded=1;orthogonalLoop=1;jettySize=auto;html=1;entryX=0;entryY=0.5;entryDx=0;entryDy=0;strokeColor=default;align=center;verticalAlign=middle;fontFamily=Helvetica;fontSize=11;fontColor=default;labelBackgroundColor=default;endArrow=none;endFill=0;" edge="1" parent="1" source="vzzJvYFb9WrTzv0klFdv-6" target="vzzJvYFb9WrTzv0klFdv-19">
          <mxGeometry relative="1" as="geometry">
            <Array as="points">
              <mxPoint x="800" y="330" />
              <mxPoint x="800" y="210" />
            </Array>
          </mxGeometry>
        </mxCell>
        <mxCell id="vzzJvYFb9WrTzv0klFdv-2" style="edgeStyle=orthogonalEdgeStyle;shape=connector;curved=0;rounded=1;orthogonalLoop=1;jettySize=auto;html=1;entryX=0.5;entryY=1;entryDx=0;entryDy=0;strokeColor=default;align=center;verticalAlign=middle;fontFamily=Helvetica;fontSize=11;fontColor=default;labelBackgroundColor=default;endArrow=none;endFill=0;" edge="1" parent="1" source="vzzJvYFb9WrTzv0klFdv-6" target="vzzJvYFb9WrTzv0klFdv-27">
          <mxGeometry relative="1" as="geometry" />
        </mxCell>
        <mxCell id="vzzJvYFb9WrTzv0klFdv-3" style="edgeStyle=orthogonalEdgeStyle;rounded=1;orthogonalLoop=1;jettySize=auto;html=1;entryX=1;entryY=0.5;entryDx=0;entryDy=0;curved=0;endArrow=none;startFill=0;" edge="1" parent="1" source="vzzJvYFb9WrTzv0klFdv-6" target="vzzJvYFb9WrTzv0klFdv-31">
          <mxGeometry relative="1" as="geometry" />
        </mxCell>
        <mxCell id="vzzJvYFb9WrTzv0klFdv-4" style="edgeStyle=orthogonalEdgeStyle;rounded=1;orthogonalLoop=1;jettySize=auto;html=1;entryX=1;entryY=0.5;entryDx=0;entryDy=0;curved=0;endArrow=none;startFill=0;" edge="1" parent="1" source="vzzJvYFb9WrTzv0klFdv-6" target="vzzJvYFb9WrTzv0klFdv-30">
          <mxGeometry relative="1" as="geometry" />
        </mxCell>
        <mxCell id="vzzJvYFb9WrTzv0klFdv-5" style="edgeStyle=orthogonalEdgeStyle;shape=connector;curved=0;rounded=1;orthogonalLoop=1;jettySize=auto;html=1;strokeColor=default;align=center;verticalAlign=middle;fontFamily=Helvetica;fontSize=11;fontColor=default;fontStyle=2;labelBackgroundColor=default;endArrow=none;endFill=0;startFill=0;" edge="1" parent="1" source="vzzJvYFb9WrTzv0klFdv-6" target="vzzJvYFb9WrTzv0klFdv-33">
          <mxGeometry relative="1" as="geometry" />
        </mxCell>
        <mxCell id="vzzJvYFb9WrTzv0klFdv-6" value="Sondaggista" style="shape=umlActor;verticalLabelPosition=bottom;verticalAlign=top;html=1;outlineConnect=0;" vertex="1" parent="1">
          <mxGeometry x="741" y="300" width="30" height="60" as="geometry" />
        </mxCell>
        <mxCell id="vzzJvYFb9WrTzv0klFdv-7" style="edgeStyle=orthogonalEdgeStyle;shape=connector;curved=0;rounded=1;orthogonalLoop=1;jettySize=auto;html=1;entryX=1;entryY=0.5;entryDx=0;entryDy=0;dashed=1;dashPattern=8 8;strokeColor=default;align=center;verticalAlign=middle;fontFamily=Helvetica;fontSize=11;fontColor=default;fontStyle=2;labelBackgroundColor=default;endArrow=open;endFill=0;" edge="1" parent="1" source="vzzJvYFb9WrTzv0klFdv-8" target="vzzJvYFb9WrTzv0klFdv-33">
          <mxGeometry relative="1" as="geometry">
            <Array as="points">
              <mxPoint x="1070" y="490" />
              <mxPoint x="1070" y="330" />
            </Array>
          </mxGeometry>
        </mxCell>
        <mxCell id="vzzJvYFb9WrTzv0klFdv-8" value="Aggiungere sondaggi&lt;div&gt;&amp;nbsp;al sistema&lt;/div&gt;" style="ellipse;whiteSpace=wrap;html=1;fontFamily=Helvetica;fontSize=11;fontColor=default;labelBackgroundColor=default;" vertex="1" parent="1">
          <mxGeometry x="1090" y="455" width="139" height="70" as="geometry" />
        </mxCell>
        <mxCell id="vzzJvYFb9WrTzv0klFdv-9" style="edgeStyle=orthogonalEdgeStyle;shape=connector;curved=0;rounded=1;orthogonalLoop=1;jettySize=auto;html=1;entryX=1;entryY=0.5;entryDx=0;entryDy=0;dashed=1;dashPattern=8 8;strokeColor=default;align=center;verticalAlign=middle;fontFamily=Helvetica;fontSize=11;fontColor=default;fontStyle=2;labelBackgroundColor=default;endArrow=open;endFill=0;" edge="1" parent="1" source="vzzJvYFb9WrTzv0klFdv-10" target="vzzJvYFb9WrTzv0klFdv-33">
          <mxGeometry relative="1" as="geometry">
            <Array as="points">
              <mxPoint x="1070" y="380" />
              <mxPoint x="1070" y="330" />
            </Array>
          </mxGeometry>
        </mxCell>
        <mxCell id="vzzJvYFb9WrTzv0klFdv-10" value="Cancellare sondaggi" style="ellipse;whiteSpace=wrap;html=1;fontFamily=Helvetica;fontSize=11;fontColor=default;labelBackgroundColor=default;" vertex="1" parent="1">
          <mxGeometry x="1090" y="345" width="140" height="70" as="geometry" />
        </mxCell>
        <mxCell id="vzzJvYFb9WrTzv0klFdv-11" value="&amp;lt;&amp;lt;include&amp;gt;&amp;gt;" style="edgeStyle=orthogonalEdgeStyle;rounded=1;orthogonalLoop=1;jettySize=auto;html=1;dashed=1;dashPattern=12 12;curved=0;endArrow=open;endFill=0;fontStyle=2;exitX=0.397;exitY=0.014;exitDx=0;exitDy=0;exitPerimeter=0;" edge="1" parent="1" source="vzzJvYFb9WrTzv0klFdv-13" target="vzzJvYFb9WrTzv0klFdv-24">
          <mxGeometry relative="1" as="geometry" />
        </mxCell>
        <mxCell id="vzzJvYFb9WrTzv0klFdv-12" value="&amp;lt;&amp;lt;extends&amp;gt;&amp;gt;" style="edgeStyle=orthogonalEdgeStyle;rounded=1;orthogonalLoop=1;jettySize=auto;html=1;fontStyle=2;dashed=1;dashPattern=12 12;curved=0;endArrow=none;endFill=0;startArrow=open;startFill=0;exitX=0.601;exitY=0.014;exitDx=0;exitDy=0;exitPerimeter=0;" edge="1" parent="1" source="vzzJvYFb9WrTzv0klFdv-13" target="vzzJvYFb9WrTzv0klFdv-23">
          <mxGeometry relative="1" as="geometry" />
        </mxCell>
        <mxCell id="vzzJvYFb9WrTzv0klFdv-13" value="Aggiungere voti&amp;nbsp;&lt;div&gt;ai sondaggi&lt;/div&gt;" style="ellipse;whiteSpace=wrap;html=1;fontFamily=Helvetica;fontSize=11;fontColor=default;labelBackgroundColor=default;" vertex="1" parent="1">
          <mxGeometry x="280" y="170" width="140" height="70" as="geometry" />
        </mxCell>
        <mxCell id="vzzJvYFb9WrTzv0klFdv-14" style="edgeStyle=orthogonalEdgeStyle;shape=connector;curved=0;rounded=1;orthogonalLoop=1;jettySize=auto;html=1;strokeColor=default;align=center;verticalAlign=middle;fontFamily=Helvetica;fontSize=11;fontColor=default;labelBackgroundColor=default;endArrow=none;endFill=0;" edge="1" parent="1" source="vzzJvYFb9WrTzv0klFdv-15" target="vzzJvYFb9WrTzv0klFdv-13">
          <mxGeometry relative="1" as="geometry" />
        </mxCell>
        <mxCell id="vzzJvYFb9WrTzv0klFdv-15" value="Cittadino" style="shape=umlActor;verticalLabelPosition=bottom;verticalAlign=top;html=1;fontFamily=Helvetica;fontSize=12;fontColor=default;labelBackgroundColor=default;" vertex="1" parent="1">
          <mxGeometry x="160" y="175" width="30" height="60" as="geometry" />
        </mxCell>
        <mxCell id="vzzJvYFb9WrTzv0klFdv-16" value="&lt;i&gt;&lt;font style=&quot;font-size: 12px;&quot;&gt;&amp;lt;&amp;lt;extend&amp;gt;&amp;gt;&lt;/font&gt;&lt;/i&gt;" style="edgeStyle=orthogonalEdgeStyle;shape=connector;curved=0;rounded=1;orthogonalLoop=1;jettySize=auto;html=1;entryX=0;entryY=0.5;entryDx=0;entryDy=0;dashed=1;dashPattern=12 12;strokeColor=default;align=center;verticalAlign=middle;fontFamily=Helvetica;fontSize=11;fontColor=default;labelBackgroundColor=default;startArrow=open;startFill=0;endArrow=none;endFill=0;exitX=1;exitY=0.5;exitDx=0;exitDy=0;" edge="1" parent="1" source="vzzJvYFb9WrTzv0klFdv-18" target="vzzJvYFb9WrTzv0klFdv-20">
          <mxGeometry x="0.1111" relative="1" as="geometry">
            <Array as="points" />
            <mxPoint as="offset" />
          </mxGeometry>
        </mxCell>
        <mxCell id="vzzJvYFb9WrTzv0klFdv-17" value="" style="edgeStyle=orthogonalEdgeStyle;rounded=1;orthogonalLoop=1;jettySize=auto;html=1;entryX=1;entryY=0.5;entryDx=0;entryDy=0;curved=0;dashed=1;dashPattern=8 8;endArrow=open;endFill=0;fontStyle=2" edge="1" parent="1" source="vzzJvYFb9WrTzv0klFdv-18" target="vzzJvYFb9WrTzv0klFdv-33">
          <mxGeometry x="0.6314" relative="1" as="geometry">
            <Array as="points">
              <mxPoint x="1070" y="160" />
              <mxPoint x="1070" y="330" />
            </Array>
            <mxPoint as="offset" />
          </mxGeometry>
        </mxCell>
        <mxCell id="vzzJvYFb9WrTzv0klFdv-18" value="Creare nuovi sondaggi" style="ellipse;whiteSpace=wrap;html=1;fontFamily=Helvetica;fontSize=11;fontColor=default;labelBackgroundColor=default;" vertex="1" parent="1">
          <mxGeometry x="1090" y="125" width="140" height="70" as="geometry" />
        </mxCell>
        <mxCell id="vzzJvYFb9WrTzv0klFdv-19" value="Visualizzare i sondaggi" style="ellipse;whiteSpace=wrap;html=1;fontFamily=Helvetica;fontSize=11;fontColor=default;labelBackgroundColor=default;" vertex="1" parent="1">
          <mxGeometry x="830" y="175" width="140" height="70" as="geometry" />
        </mxCell>
        <mxCell id="vzzJvYFb9WrTzv0klFdv-20" value="Caricare sondaggi&amp;nbsp;&lt;div&gt;da file&lt;/div&gt;" style="ellipse;whiteSpace=wrap;html=1;fontFamily=Helvetica;fontSize=11;fontColor=default;labelBackgroundColor=default;" vertex="1" parent="1">
          <mxGeometry x="1320" y="125" width="140" height="70" as="geometry" />
        </mxCell>
        <mxCell id="vzzJvYFb9WrTzv0klFdv-21" style="edgeStyle=orthogonalEdgeStyle;shape=connector;curved=0;rounded=1;orthogonalLoop=1;jettySize=auto;html=1;strokeColor=default;align=center;verticalAlign=middle;fontFamily=Helvetica;fontSize=11;fontColor=default;labelBackgroundColor=default;endArrow=none;endFill=0;startArrow=block;startFill=0;" edge="1" parent="1" source="vzzJvYFb9WrTzv0klFdv-22">
          <mxGeometry relative="1" as="geometry">
            <mxPoint x="756" y="382" as="targetPoint" />
          </mxGeometry>
        </mxCell>
        <mxCell id="vzzJvYFb9WrTzv0klFdv-22" value="Utente Non Loggato" style="shape=umlActor;verticalLabelPosition=bottom;verticalAlign=top;html=1;outlineConnect=0;" vertex="1" parent="1">
          <mxGeometry x="742" y="455" width="29" height="60" as="geometry" />
        </mxCell>
        <mxCell id="vzzJvYFb9WrTzv0klFdv-23" value="Inserire età del cittadino" style="ellipse;whiteSpace=wrap;html=1;fontFamily=Helvetica;fontSize=11;fontColor=default;labelBackgroundColor=default;" vertex="1" parent="1">
          <mxGeometry x="380" y="50" width="140" height="70" as="geometry" />
        </mxCell>
        <mxCell id="vzzJvYFb9WrTzv0klFdv-24" value="Inserire circoscrizione&lt;div&gt;e voto&lt;/div&gt;" style="ellipse;whiteSpace=wrap;html=1;fontFamily=Helvetica;fontSize=11;fontColor=default;labelBackgroundColor=default;" vertex="1" parent="1">
          <mxGeometry x="190" y="50" width="140" height="70" as="geometry" />
        </mxCell>
        <mxCell id="vzzJvYFb9WrTzv0klFdv-25" value="&#xa;&lt;span style=&quot;color: rgb(0, 0, 0); font-family: Helvetica; font-size: 11px; font-style: italic; font-variant-ligatures: normal; font-variant-caps: normal; font-weight: 400; letter-spacing: normal; orphans: 2; text-align: center; text-indent: 0px; text-transform: none; widows: 2; word-spacing: 0px; -webkit-text-stroke-width: 0px; white-space: nowrap; background-color: rgb(255, 255, 255); text-decoration-thickness: initial; text-decoration-style: initial; text-decoration-color: initial; display: inline !important; float: none;&quot;&gt;&amp;lt;&amp;lt;extends&amp;gt;&amp;gt;&lt;/span&gt;&#xa;&#xa;" style="edgeStyle=orthogonalEdgeStyle;shape=connector;curved=0;rounded=1;orthogonalLoop=1;jettySize=auto;html=1;entryX=1;entryY=0.5;entryDx=0;entryDy=0;dashed=1;dashPattern=8 8;strokeColor=default;align=center;verticalAlign=middle;fontFamily=Helvetica;fontSize=11;fontColor=default;fontStyle=2;labelBackgroundColor=default;endArrow=open;endFill=0;" edge="1" parent="1" source="vzzJvYFb9WrTzv0klFdv-26" target="vzzJvYFb9WrTzv0klFdv-33">
          <mxGeometry x="0.5566" y="8" relative="1" as="geometry">
            <Array as="points">
              <mxPoint x="1070" y="270" />
              <mxPoint x="1070" y="330" />
            </Array>
            <mxPoint as="offset" />
          </mxGeometry>
        </mxCell>
        <mxCell id="vzzJvYFb9WrTzv0klFdv-26" value="Salvare sondaggi" style="ellipse;whiteSpace=wrap;html=1;fontFamily=Helvetica;fontSize=11;fontColor=default;labelBackgroundColor=default;" vertex="1" parent="1">
          <mxGeometry x="1090" y="235" width="140" height="70" as="geometry" />
        </mxCell>
        <mxCell id="vzzJvYFb9WrTzv0klFdv-27" value="Eseguire logout" style="ellipse;whiteSpace=wrap;html=1;fontFamily=Helvetica;fontSize=11;fontColor=default;labelBackgroundColor=default;" vertex="1" parent="1">
          <mxGeometry x="686" y="55" width="140" height="70" as="geometry" />
        </mxCell>
        <mxCell id="vzzJvYFb9WrTzv0klFdv-28" value="&lt;i&gt;&amp;lt;&amp;lt;extends&amp;gt;&amp;gt;&lt;/i&gt;" style="edgeStyle=orthogonalEdgeStyle;rounded=1;orthogonalLoop=1;jettySize=auto;html=1;curved=0;endArrow=open;endFill=0;dashed=1;dashPattern=8 8;" edge="1" parent="1" source="vzzJvYFb9WrTzv0klFdv-29" target="vzzJvYFb9WrTzv0klFdv-31">
          <mxGeometry x="0.5122" relative="1" as="geometry">
            <Array as="points">
              <mxPoint x="440" y="330" />
              <mxPoint x="440" y="265" />
            </Array>
            <mxPoint as="offset" />
          </mxGeometry>
        </mxCell>
        <mxCell id="vzzJvYFb9WrTzv0klFdv-29" value="Rimuovere voti&amp;nbsp;&lt;div&gt;dai sondaggi&lt;/div&gt;" style="ellipse;whiteSpace=wrap;html=1;fontFamily=Helvetica;fontSize=11;fontColor=default;labelBackgroundColor=default;" vertex="1" parent="1">
          <mxGeometry x="280" y="295" width="140" height="70" as="geometry" />
        </mxCell>
        <mxCell id="vzzJvYFb9WrTzv0klFdv-30" value="Visualizzare i voti" style="ellipse;whiteSpace=wrap;html=1;fontFamily=Helvetica;fontSize=11;fontColor=default;labelBackgroundColor=default;" vertex="1" parent="1">
          <mxGeometry x="540" y="360" width="140" height="70" as="geometry" />
        </mxCell>
        <mxCell id="vzzJvYFb9WrTzv0klFdv-31" value="Gestire i voti" style="ellipse;whiteSpace=wrap;html=1;fontFamily=Helvetica;fontSize=11;fontColor=default;labelBackgroundColor=default;" vertex="1" parent="1">
          <mxGeometry x="540" y="230" width="140" height="70" as="geometry" />
        </mxCell>
        <mxCell id="vzzJvYFb9WrTzv0klFdv-32" value="&lt;i&gt;&amp;lt;&amp;lt;extends&amp;gt;&amp;gt;&lt;/i&gt;" style="edgeStyle=orthogonalEdgeStyle;rounded=1;orthogonalLoop=1;jettySize=auto;html=1;curved=0;endArrow=open;endFill=0;dashed=1;dashPattern=8 8;exitX=1;exitY=0.5;exitDx=0;exitDy=0;entryX=0;entryY=0.5;entryDx=0;entryDy=0;" edge="1" parent="1" source="vzzJvYFb9WrTzv0klFdv-13" target="vzzJvYFb9WrTzv0klFdv-31">
          <mxGeometry x="0.5" relative="1" as="geometry">
            <mxPoint x="380" y="340" as="sourcePoint" />
            <mxPoint x="520" y="275" as="targetPoint" />
            <Array as="points">
              <mxPoint x="440" y="205" />
              <mxPoint x="440" y="265" />
            </Array>
            <mxPoint as="offset" />
          </mxGeometry>
        </mxCell>
        <mxCell id="vzzJvYFb9WrTzv0klFdv-33" value="Gestire i sondaggi" style="ellipse;whiteSpace=wrap;html=1;fontFamily=Helvetica;fontSize=11;fontColor=default;labelBackgroundColor=default;" vertex="1" parent="1">
          <mxGeometry x="830" y="295" width="140" height="70" as="geometry" />
        </mxCell>
        <mxCell id="WYuGSfqK6daHYgLmfcRc-1" style="edgeStyle=orthogonalEdgeStyle;shape=connector;curved=0;rounded=1;orthogonalLoop=1;jettySize=auto;html=1;entryX=0.5;entryY=1;entryDx=0;entryDy=0;strokeColor=default;align=center;verticalAlign=middle;fontFamily=Helvetica;fontSize=11;fontColor=default;labelBackgroundColor=default;endArrow=none;endFill=0;" edge="1" parent="1" source="WYuGSfqK6daHYgLmfcRc-5" target="WYuGSfqK6daHYgLmfcRc-6">
          <mxGeometry relative="1" as="geometry">
            <Array as="points">
              <mxPoint x="1620" y="130" />
              <mxPoint x="1620" y="130" />
            </Array>
          </mxGeometry>
        </mxCell>
        <mxCell id="WYuGSfqK6daHYgLmfcRc-2" style="edgeStyle=orthogonalEdgeStyle;rounded=1;orthogonalLoop=1;jettySize=auto;html=1;entryX=0;entryY=0.5;entryDx=0;entryDy=0;endArrow=none;endFill=0;curved=0;" edge="1" parent="1" source="WYuGSfqK6daHYgLmfcRc-5" target="WYuGSfqK6daHYgLmfcRc-11">
          <mxGeometry relative="1" as="geometry">
            <Array as="points">
              <mxPoint x="1730" y="205" />
              <mxPoint x="1730" y="325" />
            </Array>
          </mxGeometry>
        </mxCell>
        <mxCell id="WYuGSfqK6daHYgLmfcRc-3" style="edgeStyle=orthogonalEdgeStyle;rounded=1;orthogonalLoop=1;jettySize=auto;html=1;curved=0;endArrow=none;endFill=0;entryX=0;entryY=0.5;entryDx=0;entryDy=0;" edge="1" parent="1" target="WYuGSfqK6daHYgLmfcRc-9">
          <mxGeometry relative="1" as="geometry">
            <mxPoint x="1636" y="205" as="sourcePoint" />
            <mxPoint x="1772" y="325" as="targetPoint" />
            <Array as="points">
              <mxPoint x="1730" y="205" />
              <mxPoint x="1730" y="85" />
            </Array>
          </mxGeometry>
        </mxCell>
        <mxCell id="WYuGSfqK6daHYgLmfcRc-4" style="edgeStyle=orthogonalEdgeStyle;rounded=1;orthogonalLoop=1;jettySize=auto;html=1;curved=0;endArrow=none;endFill=0;" edge="1" parent="1" target="WYuGSfqK6daHYgLmfcRc-7">
          <mxGeometry relative="1" as="geometry">
            <mxPoint x="1620" y="260" as="sourcePoint" />
            <Array as="points">
              <mxPoint x="1620" y="280" />
              <mxPoint x="1620" y="280" />
            </Array>
          </mxGeometry>
        </mxCell>
        <mxCell id="WYuGSfqK6daHYgLmfcRc-5" value="Utente Non Loggato" style="shape=umlActor;verticalLabelPosition=bottom;verticalAlign=top;html=1;outlineConnect=0;" vertex="1" parent="1">
          <mxGeometry x="1605" y="175" width="29" height="60" as="geometry" />
        </mxCell>
        <mxCell id="WYuGSfqK6daHYgLmfcRc-6" value="Cambiare lingua" style="ellipse;whiteSpace=wrap;html=1;fontFamily=Helvetica;fontSize=11;fontColor=default;labelBackgroundColor=default;" vertex="1" parent="1">
          <mxGeometry x="1550" y="50" width="139" height="70" as="geometry" />
        </mxCell>
        <mxCell id="WYuGSfqK6daHYgLmfcRc-7" value="Eseguire login" style="ellipse;whiteSpace=wrap;html=1;fontFamily=Helvetica;fontSize=11;fontColor=default;labelBackgroundColor=default;" vertex="1" parent="1">
          <mxGeometry x="1550" y="300" width="139" height="70" as="geometry" />
        </mxCell>
        <mxCell id="WYuGSfqK6daHYgLmfcRc-8" value="Servizio SSO" style="shape=umlActor;verticalLabelPosition=bottom;verticalAlign=top;html=1;" vertex="1" parent="1">
          <mxGeometry x="1605" y="415" width="29" height="60" as="geometry" />
        </mxCell>
        <mxCell id="WYuGSfqK6daHYgLmfcRc-9" value="Visualizzare città" style="ellipse;whiteSpace=wrap;html=1;fontFamily=Helvetica;fontSize=11;fontColor=default;labelBackgroundColor=default;" vertex="1" parent="1">
          <mxGeometry x="1770" y="50" width="139" height="70" as="geometry" />
        </mxCell>
        <mxCell id="WYuGSfqK6daHYgLmfcRc-10" value="&lt;i&gt;&amp;lt;&amp;lt;include&amp;gt;&amp;gt;&lt;/i&gt;" style="edgeStyle=orthogonalEdgeStyle;rounded=1;orthogonalLoop=1;jettySize=auto;html=1;curved=0;dashed=1;dashPattern=8 8;endArrow=open;endFill=0;entryX=0.5;entryY=1;entryDx=0;entryDy=0;" edge="1" parent="1" source="WYuGSfqK6daHYgLmfcRc-11" target="WYuGSfqK6daHYgLmfcRc-15">
          <mxGeometry relative="1" as="geometry" />
        </mxCell>
        <mxCell id="WYuGSfqK6daHYgLmfcRc-11" value="Visualizzare zona" style="ellipse;whiteSpace=wrap;html=1;fontFamily=Helvetica;fontSize=11;fontColor=default;labelBackgroundColor=default;" vertex="1" parent="1">
          <mxGeometry x="1770" y="290" width="139" height="70" as="geometry" />
        </mxCell>
        <mxCell id="WYuGSfqK6daHYgLmfcRc-12" value="&lt;i&gt;&amp;lt;&amp;lt;extends&amp;gt;&amp;gt;&lt;/i&gt;" style="edgeStyle=orthogonalEdgeStyle;rounded=1;orthogonalLoop=1;jettySize=auto;html=1;entryX=0.5;entryY=1;entryDx=0;entryDy=0;curved=0;dashed=1;dashPattern=12 12;endArrow=open;endFill=0;exitX=0.5;exitY=0;exitDx=0;exitDy=0;" edge="1" parent="1" source="WYuGSfqK6daHYgLmfcRc-15" target="WYuGSfqK6daHYgLmfcRc-9">
          <mxGeometry x="-0.2" relative="1" as="geometry">
            <Array as="points">
              <mxPoint x="1840" y="150" />
              <mxPoint x="1840" y="125" />
            </Array>
            <mxPoint as="offset" />
            <mxPoint x="2090" y="290" as="sourcePoint" />
          </mxGeometry>
        </mxCell>
        <mxCell id="WYuGSfqK6daHYgLmfcRc-13" value="&amp;lt;&amp;lt;extends&amp;gt;&amp;gt;" style="edgeStyle=orthogonalEdgeStyle;rounded=1;orthogonalLoop=1;jettySize=auto;html=1;entryX=1;entryY=0.5;entryDx=0;entryDy=0;curved=0;dashed=1;dashPattern=12 12;endArrow=open;endFill=0;fontStyle=2" edge="1" parent="1" source="WYuGSfqK6daHYgLmfcRc-14" target="WYuGSfqK6daHYgLmfcRc-11">
          <mxGeometry x="-0.0009" relative="1" as="geometry">
            <mxPoint as="offset" />
          </mxGeometry>
        </mxCell>
        <mxCell id="WYuGSfqK6daHYgLmfcRc-14" value="Visualizzare&amp;nbsp;&lt;div&gt;elenco strutture&lt;/div&gt;" style="ellipse;whiteSpace=wrap;html=1;fontFamily=Helvetica;fontSize=11;fontColor=default;labelBackgroundColor=default;" vertex="1" parent="1">
          <mxGeometry x="1990" y="290" width="139" height="70" as="geometry" />
        </mxCell>
        <mxCell id="WYuGSfqK6daHYgLmfcRc-15" value="interagire con la mappa" style="ellipse;whiteSpace=wrap;html=1;fontFamily=Helvetica;fontSize=11;fontColor=default;labelBackgroundColor=default;" vertex="1" parent="1">
          <mxGeometry x="1770" y="170" width="139" height="70" as="geometry" />
        </mxCell>
        <mxCell id="WYuGSfqK6daHYgLmfcRc-16" style="edgeStyle=orthogonalEdgeStyle;rounded=1;orthogonalLoop=1;jettySize=auto;html=1;entryX=1;entryY=0.5;entryDx=0;entryDy=0;endArrow=none;endFill=0;curved=0;" edge="1" parent="1" source="WYuGSfqK6daHYgLmfcRc-17" target="WYuGSfqK6daHYgLmfcRc-15">
          <mxGeometry relative="1" as="geometry" />
        </mxCell>
        <mxCell id="WYuGSfqK6daHYgLmfcRc-17" value="OpenStreetMap" style="shape=umlActor;verticalLabelPosition=bottom;verticalAlign=top;html=1;outlineConnect=0;" vertex="1" parent="1">
          <mxGeometry x="2045" y="175" width="29" height="60" as="geometry" />
        </mxCell>
        <mxCell id="WYuGSfqK6daHYgLmfcRc-18" style="edgeStyle=orthogonalEdgeStyle;rounded=1;orthogonalLoop=1;jettySize=auto;html=1;entryX=0.5;entryY=0;entryDx=0;entryDy=0;entryPerimeter=0;curved=0;endArrow=none;endFill=0;" edge="1" parent="1" source="WYuGSfqK6daHYgLmfcRc-7" target="WYuGSfqK6daHYgLmfcRc-8">
          <mxGeometry relative="1" as="geometry" />
        </mxCell>
        <mxCell id="1vx6N8qlTeAa8jSKavIP-1" style="edgeStyle=orthogonalEdgeStyle;rounded=0;orthogonalLoop=1;jettySize=auto;html=1;endArrow=block;endFill=0;" edge="1" parent="1" source="1vx6N8qlTeAa8jSKavIP-6" target="1vx6N8qlTeAa8jSKavIP-7">
          <mxGeometry relative="1" as="geometry" />
        </mxCell>
        <mxCell id="1vx6N8qlTeAa8jSKavIP-2" style="edgeStyle=orthogonalEdgeStyle;rounded=1;orthogonalLoop=1;jettySize=auto;html=1;entryX=0;entryY=0.5;entryDx=0;entryDy=0;curved=0;endArrow=none;startFill=0;" edge="1" parent="1" source="1vx6N8qlTeAa8jSKavIP-6" target="1vx6N8qlTeAa8jSKavIP-14">
          <mxGeometry relative="1" as="geometry">
            <Array as="points">
              <mxPoint x="430" y="1100" />
              <mxPoint x="430" y="875" />
            </Array>
          </mxGeometry>
        </mxCell>
        <mxCell id="1vx6N8qlTeAa8jSKavIP-3" style="edgeStyle=orthogonalEdgeStyle;shape=connector;curved=0;rounded=1;orthogonalLoop=1;jettySize=auto;html=1;strokeColor=default;align=center;verticalAlign=middle;fontFamily=Helvetica;fontSize=11;fontColor=default;labelBackgroundColor=default;startFill=0;endArrow=none;" edge="1" parent="1" source="1vx6N8qlTeAa8jSKavIP-6" target="1vx6N8qlTeAa8jSKavIP-12">
          <mxGeometry relative="1" as="geometry" />
        </mxCell>
        <mxCell id="1vx6N8qlTeAa8jSKavIP-4" style="edgeStyle=orthogonalEdgeStyle;shape=connector;curved=0;rounded=1;orthogonalLoop=1;jettySize=auto;html=1;entryX=0;entryY=0.5;entryDx=0;entryDy=0;strokeColor=default;align=center;verticalAlign=middle;fontFamily=Helvetica;fontSize=11;fontColor=default;labelBackgroundColor=default;startFill=0;endArrow=none;" edge="1" parent="1" source="1vx6N8qlTeAa8jSKavIP-6" target="1vx6N8qlTeAa8jSKavIP-24">
          <mxGeometry relative="1" as="geometry">
            <Array as="points">
              <mxPoint x="430" y="1100" />
              <mxPoint x="430" y="1325" />
            </Array>
          </mxGeometry>
        </mxCell>
        <mxCell id="1vx6N8qlTeAa8jSKavIP-5" style="edgeStyle=orthogonalEdgeStyle;shape=connector;curved=0;rounded=1;orthogonalLoop=1;jettySize=auto;html=1;entryX=0.5;entryY=1;entryDx=0;entryDy=0;strokeColor=default;align=center;verticalAlign=middle;fontFamily=Helvetica;fontSize=11;fontColor=default;labelBackgroundColor=default;startFill=0;endArrow=none;" edge="1" parent="1" source="1vx6N8qlTeAa8jSKavIP-6" target="1vx6N8qlTeAa8jSKavIP-8">
          <mxGeometry relative="1" as="geometry" />
        </mxCell>
        <mxCell id="1vx6N8qlTeAa8jSKavIP-6" value="Circoscrizione" style="shape=umlActor;verticalLabelPosition=bottom;verticalAlign=top;html=1;outlineConnect=0;" vertex="1" parent="1">
          <mxGeometry x="310" y="1070" width="30" height="60" as="geometry" />
        </mxCell>
        <mxCell id="1vx6N8qlTeAa8jSKavIP-7" value="Utente Non Loggato" style="shape=umlActor;verticalLabelPosition=bottom;verticalAlign=top;html=1;outlineConnect=0;" vertex="1" parent="1">
          <mxGeometry x="210" y="1070" width="29" height="60" as="geometry" />
        </mxCell>
        <mxCell id="1vx6N8qlTeAa8jSKavIP-8" value="Visualizzare richieste" style="ellipse;whiteSpace=wrap;html=1;fontFamily=Helvetica;fontSize=11;fontColor=default;labelBackgroundColor=default;" vertex="1" parent="1">
          <mxGeometry x="255" y="880" width="140" height="70" as="geometry" />
        </mxCell>
        <mxCell id="1vx6N8qlTeAa8jSKavIP-9" style="edgeStyle=orthogonalEdgeStyle;shape=connector;curved=0;rounded=1;orthogonalLoop=1;jettySize=auto;html=1;strokeColor=default;align=center;verticalAlign=middle;fontFamily=Helvetica;fontSize=11;fontColor=default;labelBackgroundColor=default;startFill=0;endArrow=none;" edge="1" parent="1" source="1vx6N8qlTeAa8jSKavIP-10">
          <mxGeometry relative="1" as="geometry">
            <mxPoint x="325" y="1150" as="targetPoint" />
          </mxGeometry>
        </mxCell>
        <mxCell id="1vx6N8qlTeAa8jSKavIP-10" value="Eseguire logout" style="ellipse;whiteSpace=wrap;html=1;fontFamily=Helvetica;fontSize=11;fontColor=default;labelBackgroundColor=default;" vertex="1" parent="1">
          <mxGeometry x="255" y="1240" width="140" height="70" as="geometry" />
        </mxCell>
        <mxCell id="1vx6N8qlTeAa8jSKavIP-11" style="edgeStyle=orthogonalEdgeStyle;rounded=1;orthogonalLoop=1;jettySize=auto;html=1;curved=0;dashed=1;dashPattern=8 8;endArrow=none;startFill=0;startArrow=open;" edge="1" parent="1" source="1vx6N8qlTeAa8jSKavIP-12" target="1vx6N8qlTeAa8jSKavIP-22">
          <mxGeometry relative="1" as="geometry">
            <Array as="points">
              <mxPoint x="710" y="1100" />
              <mxPoint x="710" y="1060" />
            </Array>
          </mxGeometry>
        </mxCell>
        <mxCell id="1vx6N8qlTeAa8jSKavIP-12" value="Gestire&lt;div&gt;ruoli Circoscrizione&lt;/div&gt;" style="ellipse;whiteSpace=wrap;html=1;fontFamily=Helvetica;fontSize=11;fontColor=default;labelBackgroundColor=default;" vertex="1" parent="1">
          <mxGeometry x="480" y="1065" width="140" height="70" as="geometry" />
        </mxCell>
        <mxCell id="1vx6N8qlTeAa8jSKavIP-13" value="&amp;lt;&amp;lt;extends&amp;gt;&amp;gt;" style="edgeStyle=orthogonalEdgeStyle;rounded=1;orthogonalLoop=1;jettySize=auto;html=1;entryX=0;entryY=0.5;entryDx=0;entryDy=0;curved=0;dashed=1;dashPattern=8 8;endArrow=none;endFill=0;fontStyle=2;startArrow=open;startFill=0;" edge="1" parent="1" source="1vx6N8qlTeAa8jSKavIP-14" target="1vx6N8qlTeAa8jSKavIP-16">
          <mxGeometry relative="1" as="geometry" />
        </mxCell>
        <mxCell id="1vx6N8qlTeAa8jSKavIP-14" value="Modificare informazioni&lt;div&gt;&amp;nbsp;servizi Circoscrizione&lt;/div&gt;" style="ellipse;whiteSpace=wrap;html=1;fontFamily=Helvetica;fontSize=11;fontColor=default;labelBackgroundColor=default;" vertex="1" parent="1">
          <mxGeometry x="480" y="840" width="140" height="70" as="geometry" />
        </mxCell>
        <mxCell id="1vx6N8qlTeAa8jSKavIP-15" value="Modificare informazioni" style="ellipse;whiteSpace=wrap;html=1;fontFamily=Helvetica;fontSize=11;fontColor=default;labelBackgroundColor=default;" vertex="1" parent="1">
          <mxGeometry x="730" y="750" width="140" height="70" as="geometry" />
        </mxCell>
        <mxCell id="1vx6N8qlTeAa8jSKavIP-16" value="Eliminare informazioni" style="ellipse;whiteSpace=wrap;html=1;fontFamily=Helvetica;fontSize=11;fontColor=default;labelBackgroundColor=default;" vertex="1" parent="1">
          <mxGeometry x="730" y="840" width="140" height="70" as="geometry" />
        </mxCell>
        <mxCell id="1vx6N8qlTeAa8jSKavIP-17" style="edgeStyle=orthogonalEdgeStyle;rounded=1;orthogonalLoop=1;jettySize=auto;html=1;endArrow=none;endFill=0;startFill=0;dashed=1;dashPattern=12 12;curved=0;" edge="1" parent="1" source="1vx6N8qlTeAa8jSKavIP-18">
          <mxGeometry relative="1" as="geometry">
            <mxPoint x="710" y="875" as="targetPoint" />
          </mxGeometry>
        </mxCell>
        <mxCell id="1vx6N8qlTeAa8jSKavIP-18" value="Aggiungere informazioni" style="ellipse;whiteSpace=wrap;html=1;fontFamily=Helvetica;fontSize=11;fontColor=default;labelBackgroundColor=default;" vertex="1" parent="1">
          <mxGeometry x="730" y="930" width="140" height="70" as="geometry" />
        </mxCell>
        <mxCell id="1vx6N8qlTeAa8jSKavIP-19" style="edgeStyle=orthogonalEdgeStyle;rounded=1;orthogonalLoop=1;jettySize=auto;html=1;endArrow=none;endFill=0;startFill=0;dashed=1;dashPattern=12 12;curved=0;entryX=0;entryY=0.5;entryDx=0;entryDy=0;" edge="1" parent="1" target="1vx6N8qlTeAa8jSKavIP-15">
          <mxGeometry relative="1" as="geometry">
            <mxPoint x="730" y="861" as="targetPoint" />
            <mxPoint x="710" y="875" as="sourcePoint" />
            <Array as="points">
              <mxPoint x="710" y="785" />
            </Array>
          </mxGeometry>
        </mxCell>
        <mxCell id="1vx6N8qlTeAa8jSKavIP-20" value="&lt;i&gt;&amp;lt;&amp;lt;extends&amp;gt;&amp;gt;&lt;/i&gt;" style="edgeStyle=orthogonalEdgeStyle;rounded=1;orthogonalLoop=1;jettySize=auto;html=1;entryX=1;entryY=0.5;entryDx=0;entryDy=0;curved=0;endArrow=open;endFill=0;dashed=1;dashPattern=8 8;" edge="1" parent="1" source="1vx6N8qlTeAa8jSKavIP-21" target="1vx6N8qlTeAa8jSKavIP-12">
          <mxGeometry x="0.4286" relative="1" as="geometry">
            <Array as="points">
              <mxPoint x="710" y="1140" />
              <mxPoint x="710" y="1100" />
            </Array>
            <mxPoint as="offset" />
          </mxGeometry>
        </mxCell>
        <mxCell id="1vx6N8qlTeAa8jSKavIP-21" value="Rimuovere ruolo" style="ellipse;whiteSpace=wrap;html=1;fontFamily=Helvetica;fontSize=11;fontColor=default;labelBackgroundColor=default;" vertex="1" parent="1">
          <mxGeometry x="730" y="1105" width="140" height="70" as="geometry" />
        </mxCell>
        <mxCell id="1vx6N8qlTeAa8jSKavIP-22" value="Aggiungere ruolo" style="ellipse;whiteSpace=wrap;html=1;fontFamily=Helvetica;fontSize=11;fontColor=default;labelBackgroundColor=default;" vertex="1" parent="1">
          <mxGeometry x="730" y="1025" width="140" height="70" as="geometry" />
        </mxCell>
        <mxCell id="1vx6N8qlTeAa8jSKavIP-23" value="&amp;lt;&amp;lt;extends&amp;gt;&amp;gt;" style="edgeStyle=orthogonalEdgeStyle;rounded=1;orthogonalLoop=1;jettySize=auto;html=1;entryX=0;entryY=0.5;entryDx=0;entryDy=0;curved=0;dashed=1;dashPattern=8 8;endArrow=none;endFill=0;fontStyle=2;startArrow=open;startFill=0;" edge="1" parent="1" source="1vx6N8qlTeAa8jSKavIP-24" target="1vx6N8qlTeAa8jSKavIP-26">
          <mxGeometry relative="1" as="geometry" />
        </mxCell>
        <mxCell id="1vx6N8qlTeAa8jSKavIP-24" value="Gestire richieste" style="ellipse;whiteSpace=wrap;html=1;fontFamily=Helvetica;fontSize=11;fontColor=default;labelBackgroundColor=default;" vertex="1" parent="1">
          <mxGeometry x="480" y="1290" width="140" height="70" as="geometry" />
        </mxCell>
        <mxCell id="1vx6N8qlTeAa8jSKavIP-25" value="Visualizzare richieste" style="ellipse;whiteSpace=wrap;html=1;fontFamily=Helvetica;fontSize=11;fontColor=default;labelBackgroundColor=default;" vertex="1" parent="1">
          <mxGeometry x="730" y="1200" width="140" height="70" as="geometry" />
        </mxCell>
        <mxCell id="1vx6N8qlTeAa8jSKavIP-26" value="Eliminare richieste" style="ellipse;whiteSpace=wrap;html=1;fontFamily=Helvetica;fontSize=11;fontColor=default;labelBackgroundColor=default;" vertex="1" parent="1">
          <mxGeometry x="730" y="1290" width="140" height="70" as="geometry" />
        </mxCell>
        <mxCell id="1vx6N8qlTeAa8jSKavIP-27" style="edgeStyle=orthogonalEdgeStyle;rounded=1;orthogonalLoop=1;jettySize=auto;html=1;endArrow=none;endFill=0;startFill=0;dashed=1;dashPattern=12 12;curved=0;" edge="1" parent="1" source="1vx6N8qlTeAa8jSKavIP-28">
          <mxGeometry relative="1" as="geometry">
            <mxPoint x="710" y="1325" as="targetPoint" />
          </mxGeometry>
        </mxCell>
        <mxCell id="1vx6N8qlTeAa8jSKavIP-28" value="Aggiungere richieste" style="ellipse;whiteSpace=wrap;html=1;fontFamily=Helvetica;fontSize=11;fontColor=default;labelBackgroundColor=default;" vertex="1" parent="1">
          <mxGeometry x="730" y="1380" width="140" height="70" as="geometry" />
        </mxCell>
        <mxCell id="1vx6N8qlTeAa8jSKavIP-29" style="edgeStyle=orthogonalEdgeStyle;rounded=1;orthogonalLoop=1;jettySize=auto;html=1;endArrow=none;endFill=0;startFill=0;dashed=1;dashPattern=12 12;curved=0;entryX=0;entryY=0.5;entryDx=0;entryDy=0;" edge="1" parent="1" target="1vx6N8qlTeAa8jSKavIP-25">
          <mxGeometry relative="1" as="geometry">
            <mxPoint x="730" y="1311" as="targetPoint" />
            <mxPoint x="710" y="1325" as="sourcePoint" />
            <Array as="points">
              <mxPoint x="710" y="1235" />
            </Array>
          </mxGeometry>
        </mxCell>
        <mxCell id="txkbxS_VicPE1vz7ZtQB-1" style="edgeStyle=orthogonalEdgeStyle;shape=connector;curved=0;rounded=1;orthogonalLoop=1;jettySize=auto;html=1;entryX=0.5;entryY=1;entryDx=0;entryDy=0;strokeColor=default;align=center;verticalAlign=middle;fontFamily=Helvetica;fontSize=11;fontColor=default;labelBackgroundColor=default;startFill=0;endArrow=none;" edge="1" parent="1" source="txkbxS_VicPE1vz7ZtQB-7" target="txkbxS_VicPE1vz7ZtQB-9">
          <mxGeometry relative="1" as="geometry" />
        </mxCell>
        <mxCell id="txkbxS_VicPE1vz7ZtQB-2" style="edgeStyle=orthogonalEdgeStyle;shape=connector;curved=0;rounded=1;orthogonalLoop=1;jettySize=auto;html=1;strokeColor=default;align=center;verticalAlign=middle;fontFamily=Helvetica;fontSize=11;fontColor=default;labelBackgroundColor=default;startFill=0;endArrow=block;startArrow=none;endFill=0;" edge="1" parent="1" source="txkbxS_VicPE1vz7ZtQB-7" target="txkbxS_VicPE1vz7ZtQB-8">
          <mxGeometry relative="1" as="geometry" />
        </mxCell>
        <mxCell id="txkbxS_VicPE1vz7ZtQB-3" style="edgeStyle=orthogonalEdgeStyle;shape=connector;curved=0;rounded=1;orthogonalLoop=1;jettySize=auto;html=1;strokeColor=default;align=center;verticalAlign=middle;fontFamily=Helvetica;fontSize=11;fontColor=default;labelBackgroundColor=default;startFill=0;endArrow=none;" edge="1" parent="1" source="txkbxS_VicPE1vz7ZtQB-7" target="txkbxS_VicPE1vz7ZtQB-17">
          <mxGeometry relative="1" as="geometry">
            <Array as="points">
              <mxPoint x="1192" y="1385" />
              <mxPoint x="1192" y="1320" />
            </Array>
          </mxGeometry>
        </mxCell>
        <mxCell id="txkbxS_VicPE1vz7ZtQB-4" style="edgeStyle=orthogonalEdgeStyle;shape=connector;curved=0;rounded=1;orthogonalLoop=1;jettySize=auto;html=1;entryX=0;entryY=0.5;entryDx=0;entryDy=0;strokeColor=default;align=center;verticalAlign=middle;fontFamily=Helvetica;fontSize=11;fontColor=default;labelBackgroundColor=default;startFill=0;endArrow=none;" edge="1" parent="1" source="txkbxS_VicPE1vz7ZtQB-7" target="txkbxS_VicPE1vz7ZtQB-20">
          <mxGeometry relative="1" as="geometry">
            <Array as="points">
              <mxPoint x="1192" y="1385" />
              <mxPoint x="1192" y="1500" />
            </Array>
          </mxGeometry>
        </mxCell>
        <mxCell id="txkbxS_VicPE1vz7ZtQB-5" style="edgeStyle=orthogonalEdgeStyle;shape=connector;curved=0;rounded=1;orthogonalLoop=1;jettySize=auto;html=1;entryX=0;entryY=0.5;entryDx=0;entryDy=0;strokeColor=default;align=center;verticalAlign=middle;fontFamily=Helvetica;fontSize=11;fontColor=default;labelBackgroundColor=default;startFill=0;endArrow=none;" edge="1" parent="1" source="txkbxS_VicPE1vz7ZtQB-7" target="txkbxS_VicPE1vz7ZtQB-14">
          <mxGeometry relative="1" as="geometry">
            <Array as="points">
              <mxPoint x="1192" y="1385" />
              <mxPoint x="1192" y="1230" />
            </Array>
          </mxGeometry>
        </mxCell>
        <mxCell id="txkbxS_VicPE1vz7ZtQB-6" style="edgeStyle=orthogonalEdgeStyle;shape=connector;curved=0;rounded=1;orthogonalLoop=1;jettySize=auto;html=1;entryX=0;entryY=0.5;entryDx=0;entryDy=0;strokeColor=default;align=center;verticalAlign=middle;fontFamily=Helvetica;fontSize=11;fontColor=default;labelBackgroundColor=default;startFill=0;endArrow=none;" edge="1" parent="1" source="txkbxS_VicPE1vz7ZtQB-7" target="txkbxS_VicPE1vz7ZtQB-11">
          <mxGeometry relative="1" as="geometry">
            <Array as="points">
              <mxPoint x="1192" y="1385" />
              <mxPoint x="1192" y="1140" />
            </Array>
          </mxGeometry>
        </mxCell>
        <mxCell id="txkbxS_VicPE1vz7ZtQB-7" value="Amministratore" style="shape=umlActor;verticalLabelPosition=bottom;verticalAlign=top;html=1;outlineConnect=0;" vertex="1" parent="1">
          <mxGeometry x="1087.5" y="1355" width="30" height="60" as="geometry" />
        </mxCell>
        <mxCell id="txkbxS_VicPE1vz7ZtQB-8" value="Utente Non Loggato" style="shape=umlActor;verticalLabelPosition=bottom;verticalAlign=top;html=1;outlineConnect=0;fontFamily=Helvetica;fontSize=12;fontColor=default;labelBackgroundColor=default;" vertex="1" parent="1">
          <mxGeometry x="982" y="1355" width="30" height="60" as="geometry" />
        </mxCell>
        <mxCell id="txkbxS_VicPE1vz7ZtQB-9" value="Eseguire logout" style="ellipse;whiteSpace=wrap;html=1;fontFamily=Helvetica;fontSize=11;fontColor=default;labelBackgroundColor=default;" vertex="1" parent="1">
          <mxGeometry x="1033" y="1255" width="139" height="70" as="geometry" />
        </mxCell>
        <mxCell id="txkbxS_VicPE1vz7ZtQB-10" value="&amp;lt;&amp;lt;include&amp;gt;&amp;gt;" style="edgeStyle=orthogonalEdgeStyle;shape=connector;curved=0;rounded=1;orthogonalLoop=1;jettySize=auto;html=1;strokeColor=default;align=center;verticalAlign=middle;fontFamily=Helvetica;fontSize=11;fontColor=default;labelBackgroundColor=default;startFill=0;endArrow=open;dashed=1;dashPattern=8 8;endFill=0;fontStyle=2" edge="1" parent="1" source="txkbxS_VicPE1vz7ZtQB-11" target="txkbxS_VicPE1vz7ZtQB-12">
          <mxGeometry relative="1" as="geometry" />
        </mxCell>
        <mxCell id="txkbxS_VicPE1vz7ZtQB-11" value="Valutare sondaggi" style="ellipse;whiteSpace=wrap;html=1;fontFamily=Helvetica;fontSize=11;fontColor=default;labelBackgroundColor=default;" vertex="1" parent="1">
          <mxGeometry x="1232" y="1105" width="139" height="70" as="geometry" />
        </mxCell>
        <mxCell id="txkbxS_VicPE1vz7ZtQB-12" value="Inserire&lt;div&gt;motivazione di rifiuto&lt;/div&gt;" style="ellipse;whiteSpace=wrap;html=1;fontFamily=Helvetica;fontSize=11;fontColor=default;labelBackgroundColor=default;" vertex="1" parent="1">
          <mxGeometry x="1482" y="1105" width="139" height="70" as="geometry" />
        </mxCell>
        <mxCell id="txkbxS_VicPE1vz7ZtQB-13" value="&amp;lt;&amp;lt;include&amp;gt;&amp;gt;" style="edgeStyle=orthogonalEdgeStyle;shape=connector;curved=0;rounded=1;orthogonalLoop=1;jettySize=auto;html=1;strokeColor=default;align=center;verticalAlign=middle;fontFamily=Helvetica;fontSize=11;fontColor=default;labelBackgroundColor=default;startFill=0;endArrow=open;dashed=1;dashPattern=8 8;endFill=0;fontStyle=2" edge="1" parent="1" source="txkbxS_VicPE1vz7ZtQB-14" target="txkbxS_VicPE1vz7ZtQB-15">
          <mxGeometry relative="1" as="geometry" />
        </mxCell>
        <mxCell id="txkbxS_VicPE1vz7ZtQB-14" value="Gestire richieste&amp;nbsp;&lt;div&gt;delle circoscrizioni&lt;/div&gt;" style="ellipse;whiteSpace=wrap;html=1;fontFamily=Helvetica;fontSize=11;fontColor=default;labelBackgroundColor=default;" vertex="1" parent="1">
          <mxGeometry x="1232" y="1195" width="139" height="70" as="geometry" />
        </mxCell>
        <mxCell id="txkbxS_VicPE1vz7ZtQB-15" value="Inserire&lt;div&gt;testo di risposta&lt;/div&gt;" style="ellipse;whiteSpace=wrap;html=1;fontFamily=Helvetica;fontSize=11;fontColor=default;labelBackgroundColor=default;" vertex="1" parent="1">
          <mxGeometry x="1482" y="1195" width="139" height="70" as="geometry" />
        </mxCell>
        <mxCell id="txkbxS_VicPE1vz7ZtQB-16" value="&amp;lt;&amp;lt;include&amp;gt;&amp;gt;" style="edgeStyle=orthogonalEdgeStyle;shape=connector;curved=0;rounded=1;orthogonalLoop=1;jettySize=auto;html=1;strokeColor=default;align=center;verticalAlign=middle;fontFamily=Helvetica;fontSize=11;fontColor=default;labelBackgroundColor=default;startFill=0;endArrow=open;dashed=1;dashPattern=8 8;endFill=0;fontStyle=2" edge="1" parent="1" source="txkbxS_VicPE1vz7ZtQB-17" target="txkbxS_VicPE1vz7ZtQB-18">
          <mxGeometry relative="1" as="geometry" />
        </mxCell>
        <mxCell id="txkbxS_VicPE1vz7ZtQB-17" value="Gestire ruoli" style="ellipse;whiteSpace=wrap;html=1;fontFamily=Helvetica;fontSize=11;fontColor=default;labelBackgroundColor=default;" vertex="1" parent="1">
          <mxGeometry x="1232" y="1285" width="139" height="70" as="geometry" />
        </mxCell>
        <mxCell id="txkbxS_VicPE1vz7ZtQB-18" value="Selezionare&lt;div&gt;&amp;nbsp;tipologia di ruolo&lt;/div&gt;" style="ellipse;whiteSpace=wrap;html=1;fontFamily=Helvetica;fontSize=11;fontColor=default;labelBackgroundColor=default;" vertex="1" parent="1">
          <mxGeometry x="1482" y="1285" width="139" height="70" as="geometry" />
        </mxCell>
        <mxCell id="txkbxS_VicPE1vz7ZtQB-19" value="&amp;lt;&amp;lt;extends&amp;gt;&amp;gt;" style="edgeStyle=orthogonalEdgeStyle;rounded=1;orthogonalLoop=1;jettySize=auto;html=1;entryX=0;entryY=0.5;entryDx=0;entryDy=0;curved=0;dashed=1;dashPattern=8 8;endArrow=none;endFill=0;fontStyle=2;startArrow=open;startFill=0;" edge="1" parent="1" source="txkbxS_VicPE1vz7ZtQB-20" target="txkbxS_VicPE1vz7ZtQB-22">
          <mxGeometry relative="1" as="geometry" />
        </mxCell>
        <mxCell id="txkbxS_VicPE1vz7ZtQB-20" value="Modificare informazioni&lt;div&gt;&amp;nbsp;servizi&lt;/div&gt;" style="ellipse;whiteSpace=wrap;html=1;fontFamily=Helvetica;fontSize=11;fontColor=default;labelBackgroundColor=default;" vertex="1" parent="1">
          <mxGeometry x="1231" y="1465" width="140" height="70" as="geometry" />
        </mxCell>
        <mxCell id="txkbxS_VicPE1vz7ZtQB-21" value="Modificare informazioni" style="ellipse;whiteSpace=wrap;html=1;fontFamily=Helvetica;fontSize=11;fontColor=default;labelBackgroundColor=default;" vertex="1" parent="1">
          <mxGeometry x="1481" y="1375" width="140" height="70" as="geometry" />
        </mxCell>
        <mxCell id="txkbxS_VicPE1vz7ZtQB-22" value="Eliminare informazioni" style="ellipse;whiteSpace=wrap;html=1;fontFamily=Helvetica;fontSize=11;fontColor=default;labelBackgroundColor=default;" vertex="1" parent="1">
          <mxGeometry x="1481" y="1465" width="140" height="70" as="geometry" />
        </mxCell>
        <mxCell id="txkbxS_VicPE1vz7ZtQB-23" style="edgeStyle=orthogonalEdgeStyle;rounded=1;orthogonalLoop=1;jettySize=auto;html=1;endArrow=none;endFill=0;startFill=0;dashed=1;dashPattern=12 12;curved=0;" edge="1" parent="1" source="txkbxS_VicPE1vz7ZtQB-24">
          <mxGeometry relative="1" as="geometry">
            <mxPoint x="1461" y="1500" as="targetPoint" />
          </mxGeometry>
        </mxCell>
        <mxCell id="txkbxS_VicPE1vz7ZtQB-24" value="Aggiungere informazioni" style="ellipse;whiteSpace=wrap;html=1;fontFamily=Helvetica;fontSize=11;fontColor=default;labelBackgroundColor=default;" vertex="1" parent="1">
          <mxGeometry x="1481" y="1555" width="140" height="70" as="geometry" />
        </mxCell>
        <mxCell id="txkbxS_VicPE1vz7ZtQB-25" style="edgeStyle=orthogonalEdgeStyle;rounded=1;orthogonalLoop=1;jettySize=auto;html=1;endArrow=none;endFill=0;startFill=0;dashed=1;dashPattern=12 12;curved=0;entryX=0;entryY=0.5;entryDx=0;entryDy=0;" edge="1" parent="1" target="txkbxS_VicPE1vz7ZtQB-21">
          <mxGeometry relative="1" as="geometry">
            <mxPoint x="1481" y="1486" as="targetPoint" />
            <mxPoint x="1461" y="1500" as="sourcePoint" />
            <Array as="points">
              <mxPoint x="1461" y="1410" />
            </Array>
          </mxGeometry>
        </mxCell>
      </root>
    </mxGraphModel>
  </diagram>
  <diagram id="IBoXyuF5e89KjCvWEoAQ" name="amministratore">
    <mxGraphModel dx="1426" dy="781" grid="1" gridSize="10" guides="1" tooltips="1" connect="1" arrows="1" fold="1" page="1" pageScale="1" pageWidth="2336" pageHeight="1654" background="#FFFFFF" math="0" shadow="0">
      <root>
        <mxCell id="0" />
        <mxCell id="1" parent="0" />
        <mxCell id="9fwpPCrLoOGT9W6cDPfa-4" style="edgeStyle=orthogonalEdgeStyle;shape=connector;curved=0;rounded=1;orthogonalLoop=1;jettySize=auto;html=1;entryX=0.5;entryY=1;entryDx=0;entryDy=0;strokeColor=default;align=center;verticalAlign=middle;fontFamily=Helvetica;fontSize=11;fontColor=default;labelBackgroundColor=default;startFill=0;endArrow=none;" parent="1" source="9fwpPCrLoOGT9W6cDPfa-1" target="9fwpPCrLoOGT9W6cDPfa-3" edge="1">
          <mxGeometry relative="1" as="geometry" />
        </mxCell>
        <mxCell id="9fwpPCrLoOGT9W6cDPfa-5" style="edgeStyle=orthogonalEdgeStyle;shape=connector;curved=0;rounded=1;orthogonalLoop=1;jettySize=auto;html=1;strokeColor=default;align=center;verticalAlign=middle;fontFamily=Helvetica;fontSize=11;fontColor=default;labelBackgroundColor=default;startFill=0;endArrow=block;startArrow=none;endFill=0;" parent="1" source="9fwpPCrLoOGT9W6cDPfa-1" target="9fwpPCrLoOGT9W6cDPfa-2" edge="1">
          <mxGeometry relative="1" as="geometry" />
        </mxCell>
        <mxCell id="RVcOKHB8seEgXDwQAJ-L-8" style="edgeStyle=orthogonalEdgeStyle;shape=connector;curved=0;rounded=1;orthogonalLoop=1;jettySize=auto;html=1;strokeColor=default;align=center;verticalAlign=middle;fontFamily=Helvetica;fontSize=11;fontColor=default;labelBackgroundColor=default;startFill=0;endArrow=none;" parent="1" source="9fwpPCrLoOGT9W6cDPfa-1" target="u9ELRGxryEByH9QnQQN1-2" edge="1">
          <mxGeometry relative="1" as="geometry">
            <Array as="points">
              <mxPoint x="540" y="360" />
              <mxPoint x="540" y="295" />
            </Array>
          </mxGeometry>
        </mxCell>
        <mxCell id="RVcOKHB8seEgXDwQAJ-L-9" style="edgeStyle=orthogonalEdgeStyle;shape=connector;curved=0;rounded=1;orthogonalLoop=1;jettySize=auto;html=1;entryX=0;entryY=0.5;entryDx=0;entryDy=0;strokeColor=default;align=center;verticalAlign=middle;fontFamily=Helvetica;fontSize=11;fontColor=default;labelBackgroundColor=default;startFill=0;endArrow=none;" parent="1" source="9fwpPCrLoOGT9W6cDPfa-1" target="RVcOKHB8seEgXDwQAJ-L-2" edge="1">
          <mxGeometry relative="1" as="geometry">
            <Array as="points">
              <mxPoint x="540" y="360" />
              <mxPoint x="540" y="475" />
            </Array>
          </mxGeometry>
        </mxCell>
        <mxCell id="RVcOKHB8seEgXDwQAJ-L-10" style="edgeStyle=orthogonalEdgeStyle;shape=connector;curved=0;rounded=1;orthogonalLoop=1;jettySize=auto;html=1;entryX=0;entryY=0.5;entryDx=0;entryDy=0;strokeColor=default;align=center;verticalAlign=middle;fontFamily=Helvetica;fontSize=11;fontColor=default;labelBackgroundColor=default;startFill=0;endArrow=none;" parent="1" source="9fwpPCrLoOGT9W6cDPfa-1" target="9fwpPCrLoOGT9W6cDPfa-10" edge="1">
          <mxGeometry relative="1" as="geometry">
            <Array as="points">
              <mxPoint x="540" y="360" />
              <mxPoint x="540" y="205" />
            </Array>
          </mxGeometry>
        </mxCell>
        <mxCell id="RVcOKHB8seEgXDwQAJ-L-11" style="edgeStyle=orthogonalEdgeStyle;shape=connector;curved=0;rounded=1;orthogonalLoop=1;jettySize=auto;html=1;entryX=0;entryY=0.5;entryDx=0;entryDy=0;strokeColor=default;align=center;verticalAlign=middle;fontFamily=Helvetica;fontSize=11;fontColor=default;labelBackgroundColor=default;startFill=0;endArrow=none;" parent="1" source="9fwpPCrLoOGT9W6cDPfa-1" target="9fwpPCrLoOGT9W6cDPfa-6" edge="1">
          <mxGeometry relative="1" as="geometry">
            <Array as="points">
              <mxPoint x="540" y="360" />
              <mxPoint x="540" y="115" />
            </Array>
          </mxGeometry>
        </mxCell>
        <mxCell id="9fwpPCrLoOGT9W6cDPfa-1" value="Amministratore" style="shape=umlActor;verticalLabelPosition=bottom;verticalAlign=top;html=1;outlineConnect=0;" parent="1" vertex="1">
          <mxGeometry x="435.5" y="330" width="30" height="60" as="geometry" />
        </mxCell>
        <mxCell id="9fwpPCrLoOGT9W6cDPfa-2" value="Utente Non Loggato" style="shape=umlActor;verticalLabelPosition=bottom;verticalAlign=top;html=1;outlineConnect=0;fontFamily=Helvetica;fontSize=12;fontColor=default;labelBackgroundColor=default;" parent="1" vertex="1">
          <mxGeometry x="330" y="330" width="30" height="60" as="geometry" />
        </mxCell>
        <mxCell id="9fwpPCrLoOGT9W6cDPfa-3" value="Eseguire logout" style="ellipse;whiteSpace=wrap;html=1;fontFamily=Helvetica;fontSize=11;fontColor=default;labelBackgroundColor=default;" parent="1" vertex="1">
          <mxGeometry x="381" y="230" width="139" height="70" as="geometry" />
        </mxCell>
        <mxCell id="9fwpPCrLoOGT9W6cDPfa-8" value="&amp;lt;&amp;lt;include&amp;gt;&amp;gt;" style="edgeStyle=orthogonalEdgeStyle;shape=connector;curved=0;rounded=1;orthogonalLoop=1;jettySize=auto;html=1;strokeColor=default;align=center;verticalAlign=middle;fontFamily=Helvetica;fontSize=11;fontColor=default;labelBackgroundColor=default;startFill=0;endArrow=open;dashed=1;dashPattern=8 8;endFill=0;fontStyle=2" parent="1" source="9fwpPCrLoOGT9W6cDPfa-6" target="9fwpPCrLoOGT9W6cDPfa-7" edge="1">
          <mxGeometry relative="1" as="geometry" />
        </mxCell>
        <mxCell id="9fwpPCrLoOGT9W6cDPfa-6" value="Valutare sondaggi" style="ellipse;whiteSpace=wrap;html=1;fontFamily=Helvetica;fontSize=11;fontColor=default;labelBackgroundColor=default;" parent="1" vertex="1">
          <mxGeometry x="580" y="80" width="139" height="70" as="geometry" />
        </mxCell>
        <mxCell id="9fwpPCrLoOGT9W6cDPfa-7" value="Inserire&lt;div&gt;motivazione di rifiuto&lt;/div&gt;" style="ellipse;whiteSpace=wrap;html=1;fontFamily=Helvetica;fontSize=11;fontColor=default;labelBackgroundColor=default;" parent="1" vertex="1">
          <mxGeometry x="830" y="80" width="139" height="70" as="geometry" />
        </mxCell>
        <mxCell id="9fwpPCrLoOGT9W6cDPfa-9" value="&amp;lt;&amp;lt;include&amp;gt;&amp;gt;" style="edgeStyle=orthogonalEdgeStyle;shape=connector;curved=0;rounded=1;orthogonalLoop=1;jettySize=auto;html=1;strokeColor=default;align=center;verticalAlign=middle;fontFamily=Helvetica;fontSize=11;fontColor=default;labelBackgroundColor=default;startFill=0;endArrow=open;dashed=1;dashPattern=8 8;endFill=0;fontStyle=2" parent="1" source="9fwpPCrLoOGT9W6cDPfa-10" target="9fwpPCrLoOGT9W6cDPfa-11" edge="1">
          <mxGeometry relative="1" as="geometry" />
        </mxCell>
        <mxCell id="9fwpPCrLoOGT9W6cDPfa-10" value="Gestire richieste&amp;nbsp;&lt;div&gt;delle circoscrizioni&lt;/div&gt;" style="ellipse;whiteSpace=wrap;html=1;fontFamily=Helvetica;fontSize=11;fontColor=default;labelBackgroundColor=default;" parent="1" vertex="1">
          <mxGeometry x="580" y="170" width="139" height="70" as="geometry" />
        </mxCell>
        <mxCell id="9fwpPCrLoOGT9W6cDPfa-11" value="Inserire&lt;div&gt;testo di risposta&lt;/div&gt;" style="ellipse;whiteSpace=wrap;html=1;fontFamily=Helvetica;fontSize=11;fontColor=default;labelBackgroundColor=default;" parent="1" vertex="1">
          <mxGeometry x="830" y="170" width="139" height="70" as="geometry" />
        </mxCell>
        <mxCell id="u9ELRGxryEByH9QnQQN1-1" value="&amp;lt;&amp;lt;include&amp;gt;&amp;gt;" style="edgeStyle=orthogonalEdgeStyle;shape=connector;curved=0;rounded=1;orthogonalLoop=1;jettySize=auto;html=1;strokeColor=default;align=center;verticalAlign=middle;fontFamily=Helvetica;fontSize=11;fontColor=default;labelBackgroundColor=default;startFill=0;endArrow=open;dashed=1;dashPattern=8 8;endFill=0;fontStyle=2" parent="1" source="u9ELRGxryEByH9QnQQN1-2" target="u9ELRGxryEByH9QnQQN1-3" edge="1">
          <mxGeometry relative="1" as="geometry" />
        </mxCell>
        <mxCell id="u9ELRGxryEByH9QnQQN1-2" value="Gestire ruoli" style="ellipse;whiteSpace=wrap;html=1;fontFamily=Helvetica;fontSize=11;fontColor=default;labelBackgroundColor=default;" parent="1" vertex="1">
          <mxGeometry x="580" y="260" width="139" height="70" as="geometry" />
        </mxCell>
        <mxCell id="u9ELRGxryEByH9QnQQN1-3" value="Selezionare&lt;div&gt;&amp;nbsp;tipologia di ruolo&lt;/div&gt;" style="ellipse;whiteSpace=wrap;html=1;fontFamily=Helvetica;fontSize=11;fontColor=default;labelBackgroundColor=default;" parent="1" vertex="1">
          <mxGeometry x="830" y="260" width="139" height="70" as="geometry" />
        </mxCell>
        <mxCell id="RVcOKHB8seEgXDwQAJ-L-1" value="&amp;lt;&amp;lt;extends&amp;gt;&amp;gt;" style="edgeStyle=orthogonalEdgeStyle;rounded=1;orthogonalLoop=1;jettySize=auto;html=1;entryX=0;entryY=0.5;entryDx=0;entryDy=0;curved=0;dashed=1;dashPattern=8 8;endArrow=none;endFill=0;fontStyle=2;startArrow=open;startFill=0;" parent="1" source="RVcOKHB8seEgXDwQAJ-L-2" target="RVcOKHB8seEgXDwQAJ-L-4" edge="1">
          <mxGeometry relative="1" as="geometry" />
        </mxCell>
        <mxCell id="RVcOKHB8seEgXDwQAJ-L-2" value="Modificare informazioni&lt;div&gt;&amp;nbsp;servizi&lt;/div&gt;" style="ellipse;whiteSpace=wrap;html=1;fontFamily=Helvetica;fontSize=11;fontColor=default;labelBackgroundColor=default;" parent="1" vertex="1">
          <mxGeometry x="579" y="440" width="140" height="70" as="geometry" />
        </mxCell>
        <mxCell id="RVcOKHB8seEgXDwQAJ-L-3" value="Modificare informazioni" style="ellipse;whiteSpace=wrap;html=1;fontFamily=Helvetica;fontSize=11;fontColor=default;labelBackgroundColor=default;" parent="1" vertex="1">
          <mxGeometry x="829" y="350" width="140" height="70" as="geometry" />
        </mxCell>
        <mxCell id="RVcOKHB8seEgXDwQAJ-L-4" value="Eliminare informazioni" style="ellipse;whiteSpace=wrap;html=1;fontFamily=Helvetica;fontSize=11;fontColor=default;labelBackgroundColor=default;" parent="1" vertex="1">
          <mxGeometry x="829" y="440" width="140" height="70" as="geometry" />
        </mxCell>
        <mxCell id="RVcOKHB8seEgXDwQAJ-L-5" style="edgeStyle=orthogonalEdgeStyle;rounded=1;orthogonalLoop=1;jettySize=auto;html=1;endArrow=none;endFill=0;startFill=0;dashed=1;dashPattern=12 12;curved=0;" parent="1" source="RVcOKHB8seEgXDwQAJ-L-6" edge="1">
          <mxGeometry relative="1" as="geometry">
            <mxPoint x="809" y="475" as="targetPoint" />
          </mxGeometry>
        </mxCell>
        <mxCell id="RVcOKHB8seEgXDwQAJ-L-6" value="Aggiungere informazioni" style="ellipse;whiteSpace=wrap;html=1;fontFamily=Helvetica;fontSize=11;fontColor=default;labelBackgroundColor=default;" parent="1" vertex="1">
          <mxGeometry x="829" y="530" width="140" height="70" as="geometry" />
        </mxCell>
        <mxCell id="RVcOKHB8seEgXDwQAJ-L-7" style="edgeStyle=orthogonalEdgeStyle;rounded=1;orthogonalLoop=1;jettySize=auto;html=1;endArrow=none;endFill=0;startFill=0;dashed=1;dashPattern=12 12;curved=0;entryX=0;entryY=0.5;entryDx=0;entryDy=0;" parent="1" target="RVcOKHB8seEgXDwQAJ-L-3" edge="1">
          <mxGeometry relative="1" as="geometry">
            <mxPoint x="829" y="461" as="targetPoint" />
            <mxPoint x="809" y="475" as="sourcePoint" />
            <Array as="points">
              <mxPoint x="809" y="385" />
            </Array>
          </mxGeometry>
        </mxCell>
      </root>
    </mxGraphModel>
  </diagram>
  <diagram id="YlhIJM6tlcuiiof7ZJzJ" name="circoscrizione">
    <mxGraphModel dx="3565" dy="3607" grid="1" gridSize="10" guides="1" tooltips="1" connect="1" arrows="1" fold="1" page="1" pageScale="1" pageWidth="2336" pageHeight="1654" background="#FFFFFF" math="0" shadow="0">
      <root>
        <mxCell id="0" />
        <mxCell id="1" parent="0" />
        <mxCell id="3ZByOMpiTACi64WsaH4I-3" style="edgeStyle=orthogonalEdgeStyle;rounded=0;orthogonalLoop=1;jettySize=auto;html=1;endArrow=block;endFill=0;" parent="1" source="3ZByOMpiTACi64WsaH4I-1" target="3ZByOMpiTACi64WsaH4I-2" edge="1">
          <mxGeometry relative="1" as="geometry" />
        </mxCell>
        <mxCell id="3ZByOMpiTACi64WsaH4I-26" style="edgeStyle=orthogonalEdgeStyle;rounded=1;orthogonalLoop=1;jettySize=auto;html=1;entryX=0;entryY=0.5;entryDx=0;entryDy=0;curved=0;endArrow=none;startFill=0;" parent="1" source="3ZByOMpiTACi64WsaH4I-1" target="3ZByOMpiTACi64WsaH4I-8" edge="1">
          <mxGeometry relative="1" as="geometry">
            <Array as="points">
              <mxPoint x="1090" y="200" />
              <mxPoint x="1090" y="-25" />
            </Array>
          </mxGeometry>
        </mxCell>
        <mxCell id="3ZByOMpiTACi64WsaH4I-27" style="edgeStyle=orthogonalEdgeStyle;shape=connector;curved=0;rounded=1;orthogonalLoop=1;jettySize=auto;html=1;strokeColor=default;align=center;verticalAlign=middle;fontFamily=Helvetica;fontSize=11;fontColor=default;labelBackgroundColor=default;startFill=0;endArrow=none;" parent="1" source="3ZByOMpiTACi64WsaH4I-1" target="3ZByOMpiTACi64WsaH4I-7" edge="1">
          <mxGeometry relative="1" as="geometry" />
        </mxCell>
        <mxCell id="3ZByOMpiTACi64WsaH4I-28" style="edgeStyle=orthogonalEdgeStyle;shape=connector;curved=0;rounded=1;orthogonalLoop=1;jettySize=auto;html=1;entryX=0;entryY=0.5;entryDx=0;entryDy=0;strokeColor=default;align=center;verticalAlign=middle;fontFamily=Helvetica;fontSize=11;fontColor=default;labelBackgroundColor=default;startFill=0;endArrow=none;" parent="1" source="3ZByOMpiTACi64WsaH4I-1" target="3ZByOMpiTACi64WsaH4I-20" edge="1">
          <mxGeometry relative="1" as="geometry">
            <Array as="points">
              <mxPoint x="1090" y="200" />
              <mxPoint x="1090" y="425" />
            </Array>
          </mxGeometry>
        </mxCell>
        <mxCell id="3ZByOMpiTACi64WsaH4I-32" style="edgeStyle=orthogonalEdgeStyle;shape=connector;curved=0;rounded=1;orthogonalLoop=1;jettySize=auto;html=1;entryX=0.5;entryY=1;entryDx=0;entryDy=0;strokeColor=default;align=center;verticalAlign=middle;fontFamily=Helvetica;fontSize=11;fontColor=default;labelBackgroundColor=default;startFill=0;endArrow=none;" parent="1" source="3ZByOMpiTACi64WsaH4I-1" target="3ZByOMpiTACi64WsaH4I-4" edge="1">
          <mxGeometry relative="1" as="geometry" />
        </mxCell>
        <mxCell id="3ZByOMpiTACi64WsaH4I-1" value="Circoscrizione" style="shape=umlActor;verticalLabelPosition=bottom;verticalAlign=top;html=1;outlineConnect=0;" parent="1" vertex="1">
          <mxGeometry x="970" y="170" width="30" height="60" as="geometry" />
        </mxCell>
        <mxCell id="3ZByOMpiTACi64WsaH4I-2" value="Utente Non Loggato" style="shape=umlActor;verticalLabelPosition=bottom;verticalAlign=top;html=1;outlineConnect=0;" parent="1" vertex="1">
          <mxGeometry x="870" y="170" width="29" height="60" as="geometry" />
        </mxCell>
        <mxCell id="3ZByOMpiTACi64WsaH4I-4" value="Visualizzare richieste" style="ellipse;whiteSpace=wrap;html=1;fontFamily=Helvetica;fontSize=11;fontColor=default;labelBackgroundColor=default;" parent="1" vertex="1">
          <mxGeometry x="915" y="-20" width="140" height="70" as="geometry" />
        </mxCell>
        <mxCell id="3ZByOMpiTACi64WsaH4I-30" style="edgeStyle=orthogonalEdgeStyle;shape=connector;curved=0;rounded=1;orthogonalLoop=1;jettySize=auto;html=1;strokeColor=default;align=center;verticalAlign=middle;fontFamily=Helvetica;fontSize=11;fontColor=default;labelBackgroundColor=default;startFill=0;endArrow=none;" parent="1" source="3ZByOMpiTACi64WsaH4I-5" edge="1">
          <mxGeometry relative="1" as="geometry">
            <mxPoint x="985" y="250" as="targetPoint" />
          </mxGeometry>
        </mxCell>
        <mxCell id="3ZByOMpiTACi64WsaH4I-5" value="Eseguire logout" style="ellipse;whiteSpace=wrap;html=1;fontFamily=Helvetica;fontSize=11;fontColor=default;labelBackgroundColor=default;" parent="1" vertex="1">
          <mxGeometry x="915" y="340" width="140" height="70" as="geometry" />
        </mxCell>
        <mxCell id="3ZByOMpiTACi64WsaH4I-17" style="edgeStyle=orthogonalEdgeStyle;rounded=1;orthogonalLoop=1;jettySize=auto;html=1;curved=0;dashed=1;dashPattern=8 8;endArrow=none;startFill=0;startArrow=open;" parent="1" source="3ZByOMpiTACi64WsaH4I-7" target="3ZByOMpiTACi64WsaH4I-16" edge="1">
          <mxGeometry relative="1" as="geometry">
            <Array as="points">
              <mxPoint x="1370" y="200" />
              <mxPoint x="1370" y="160" />
            </Array>
          </mxGeometry>
        </mxCell>
        <mxCell id="3ZByOMpiTACi64WsaH4I-7" value="Gestire&lt;div&gt;ruoli Circoscrizione&lt;/div&gt;" style="ellipse;whiteSpace=wrap;html=1;fontFamily=Helvetica;fontSize=11;fontColor=default;labelBackgroundColor=default;" parent="1" vertex="1">
          <mxGeometry x="1140" y="165" width="140" height="70" as="geometry" />
        </mxCell>
        <mxCell id="3ZByOMpiTACi64WsaH4I-11" value="&amp;lt;&amp;lt;extends&amp;gt;&amp;gt;" style="edgeStyle=orthogonalEdgeStyle;rounded=1;orthogonalLoop=1;jettySize=auto;html=1;entryX=0;entryY=0.5;entryDx=0;entryDy=0;curved=0;dashed=1;dashPattern=8 8;endArrow=none;endFill=0;fontStyle=2;startArrow=open;startFill=0;" parent="1" source="3ZByOMpiTACi64WsaH4I-8" target="3ZByOMpiTACi64WsaH4I-10" edge="1">
          <mxGeometry relative="1" as="geometry" />
        </mxCell>
        <mxCell id="3ZByOMpiTACi64WsaH4I-8" value="Modificare informazioni&lt;div&gt;&amp;nbsp;servizi Circoscrizione&lt;/div&gt;" style="ellipse;whiteSpace=wrap;html=1;fontFamily=Helvetica;fontSize=11;fontColor=default;labelBackgroundColor=default;" parent="1" vertex="1">
          <mxGeometry x="1140" y="-60" width="140" height="70" as="geometry" />
        </mxCell>
        <mxCell id="3ZByOMpiTACi64WsaH4I-9" value="Modificare informazioni" style="ellipse;whiteSpace=wrap;html=1;fontFamily=Helvetica;fontSize=11;fontColor=default;labelBackgroundColor=default;" parent="1" vertex="1">
          <mxGeometry x="1390" y="-150" width="140" height="70" as="geometry" />
        </mxCell>
        <mxCell id="3ZByOMpiTACi64WsaH4I-10" value="Eliminare informazioni" style="ellipse;whiteSpace=wrap;html=1;fontFamily=Helvetica;fontSize=11;fontColor=default;labelBackgroundColor=default;" parent="1" vertex="1">
          <mxGeometry x="1390" y="-60" width="140" height="70" as="geometry" />
        </mxCell>
        <mxCell id="3ZByOMpiTACi64WsaH4I-13" style="edgeStyle=orthogonalEdgeStyle;rounded=1;orthogonalLoop=1;jettySize=auto;html=1;endArrow=none;endFill=0;startFill=0;dashed=1;dashPattern=12 12;curved=0;" parent="1" source="3ZByOMpiTACi64WsaH4I-12" edge="1">
          <mxGeometry relative="1" as="geometry">
            <mxPoint x="1370" y="-25" as="targetPoint" />
          </mxGeometry>
        </mxCell>
        <mxCell id="3ZByOMpiTACi64WsaH4I-12" value="Aggiungere informazioni" style="ellipse;whiteSpace=wrap;html=1;fontFamily=Helvetica;fontSize=11;fontColor=default;labelBackgroundColor=default;" parent="1" vertex="1">
          <mxGeometry x="1390" y="30" width="140" height="70" as="geometry" />
        </mxCell>
        <mxCell id="3ZByOMpiTACi64WsaH4I-14" style="edgeStyle=orthogonalEdgeStyle;rounded=1;orthogonalLoop=1;jettySize=auto;html=1;endArrow=none;endFill=0;startFill=0;dashed=1;dashPattern=12 12;curved=0;entryX=0;entryY=0.5;entryDx=0;entryDy=0;" parent="1" target="3ZByOMpiTACi64WsaH4I-9" edge="1">
          <mxGeometry relative="1" as="geometry">
            <mxPoint x="1390" y="-39" as="targetPoint" />
            <mxPoint x="1370" y="-25" as="sourcePoint" />
            <Array as="points">
              <mxPoint x="1370" y="-115" />
            </Array>
          </mxGeometry>
        </mxCell>
        <mxCell id="3ZByOMpiTACi64WsaH4I-18" value="&lt;i&gt;&amp;lt;&amp;lt;extends&amp;gt;&amp;gt;&lt;/i&gt;" style="edgeStyle=orthogonalEdgeStyle;rounded=1;orthogonalLoop=1;jettySize=auto;html=1;entryX=1;entryY=0.5;entryDx=0;entryDy=0;curved=0;endArrow=open;endFill=0;dashed=1;dashPattern=8 8;" parent="1" source="3ZByOMpiTACi64WsaH4I-15" target="3ZByOMpiTACi64WsaH4I-7" edge="1">
          <mxGeometry x="0.4286" relative="1" as="geometry">
            <Array as="points">
              <mxPoint x="1370" y="240" />
              <mxPoint x="1370" y="200" />
            </Array>
            <mxPoint as="offset" />
          </mxGeometry>
        </mxCell>
        <mxCell id="3ZByOMpiTACi64WsaH4I-15" value="Rimuovere ruolo" style="ellipse;whiteSpace=wrap;html=1;fontFamily=Helvetica;fontSize=11;fontColor=default;labelBackgroundColor=default;" parent="1" vertex="1">
          <mxGeometry x="1390" y="205" width="140" height="70" as="geometry" />
        </mxCell>
        <mxCell id="3ZByOMpiTACi64WsaH4I-16" value="Aggiungere ruolo" style="ellipse;whiteSpace=wrap;html=1;fontFamily=Helvetica;fontSize=11;fontColor=default;labelBackgroundColor=default;" parent="1" vertex="1">
          <mxGeometry x="1390" y="125" width="140" height="70" as="geometry" />
        </mxCell>
        <mxCell id="3ZByOMpiTACi64WsaH4I-19" value="&amp;lt;&amp;lt;extends&amp;gt;&amp;gt;" style="edgeStyle=orthogonalEdgeStyle;rounded=1;orthogonalLoop=1;jettySize=auto;html=1;entryX=0;entryY=0.5;entryDx=0;entryDy=0;curved=0;dashed=1;dashPattern=8 8;endArrow=none;endFill=0;fontStyle=2;startArrow=open;startFill=0;" parent="1" source="3ZByOMpiTACi64WsaH4I-20" target="3ZByOMpiTACi64WsaH4I-22" edge="1">
          <mxGeometry relative="1" as="geometry" />
        </mxCell>
        <mxCell id="3ZByOMpiTACi64WsaH4I-20" value="Gestire richieste" style="ellipse;whiteSpace=wrap;html=1;fontFamily=Helvetica;fontSize=11;fontColor=default;labelBackgroundColor=default;" parent="1" vertex="1">
          <mxGeometry x="1140" y="390" width="140" height="70" as="geometry" />
        </mxCell>
        <mxCell id="3ZByOMpiTACi64WsaH4I-21" value="Visualizzare richieste" style="ellipse;whiteSpace=wrap;html=1;fontFamily=Helvetica;fontSize=11;fontColor=default;labelBackgroundColor=default;" parent="1" vertex="1">
          <mxGeometry x="1390" y="300" width="140" height="70" as="geometry" />
        </mxCell>
        <mxCell id="3ZByOMpiTACi64WsaH4I-22" value="Eliminare richieste" style="ellipse;whiteSpace=wrap;html=1;fontFamily=Helvetica;fontSize=11;fontColor=default;labelBackgroundColor=default;" parent="1" vertex="1">
          <mxGeometry x="1390" y="390" width="140" height="70" as="geometry" />
        </mxCell>
        <mxCell id="3ZByOMpiTACi64WsaH4I-23" style="edgeStyle=orthogonalEdgeStyle;rounded=1;orthogonalLoop=1;jettySize=auto;html=1;endArrow=none;endFill=0;startFill=0;dashed=1;dashPattern=12 12;curved=0;" parent="1" source="3ZByOMpiTACi64WsaH4I-24" edge="1">
          <mxGeometry relative="1" as="geometry">
            <mxPoint x="1370" y="425" as="targetPoint" />
          </mxGeometry>
        </mxCell>
        <mxCell id="3ZByOMpiTACi64WsaH4I-24" value="Aggiungere richieste" style="ellipse;whiteSpace=wrap;html=1;fontFamily=Helvetica;fontSize=11;fontColor=default;labelBackgroundColor=default;" parent="1" vertex="1">
          <mxGeometry x="1390" y="480" width="140" height="70" as="geometry" />
        </mxCell>
        <mxCell id="3ZByOMpiTACi64WsaH4I-25" style="edgeStyle=orthogonalEdgeStyle;rounded=1;orthogonalLoop=1;jettySize=auto;html=1;endArrow=none;endFill=0;startFill=0;dashed=1;dashPattern=12 12;curved=0;entryX=0;entryY=0.5;entryDx=0;entryDy=0;" parent="1" target="3ZByOMpiTACi64WsaH4I-21" edge="1">
          <mxGeometry relative="1" as="geometry">
            <mxPoint x="1390" y="411" as="targetPoint" />
            <mxPoint x="1370" y="425" as="sourcePoint" />
            <Array as="points">
              <mxPoint x="1370" y="335" />
            </Array>
          </mxGeometry>
        </mxCell>
      </root>
    </mxGraphModel>
  </diagram>
  <diagram id="3EE-3AWONL3kKHKg3ckB" name="nonloggato">
    <mxGraphModel dx="1426" dy="781" grid="1" gridSize="10" guides="1" tooltips="1" connect="1" arrows="1" fold="1" page="1" pageScale="1" pageWidth="2336" pageHeight="1654" background="#FFFFFF" math="0" shadow="0">
      <root>
        <mxCell id="0" />
        <mxCell id="1" parent="0" />
        <mxCell id="MtNc6Gnwf36n3SFKJCyT-2" style="edgeStyle=orthogonalEdgeStyle;shape=connector;curved=0;rounded=1;orthogonalLoop=1;jettySize=auto;html=1;entryX=0.5;entryY=1;entryDx=0;entryDy=0;strokeColor=default;align=center;verticalAlign=middle;fontFamily=Helvetica;fontSize=11;fontColor=default;labelBackgroundColor=default;endArrow=none;endFill=0;" parent="1" source="MtNc6Gnwf36n3SFKJCyT-6" target="MtNc6Gnwf36n3SFKJCyT-7" edge="1">
          <mxGeometry relative="1" as="geometry">
            <Array as="points">
              <mxPoint x="1620" y="130" />
              <mxPoint x="1620" y="130" />
            </Array>
          </mxGeometry>
        </mxCell>
        <mxCell id="MtNc6Gnwf36n3SFKJCyT-19" style="edgeStyle=orthogonalEdgeStyle;rounded=1;orthogonalLoop=1;jettySize=auto;html=1;entryX=0;entryY=0.5;entryDx=0;entryDy=0;endArrow=none;endFill=0;curved=0;" parent="1" source="MtNc6Gnwf36n3SFKJCyT-6" target="MtNc6Gnwf36n3SFKJCyT-16" edge="1">
          <mxGeometry relative="1" as="geometry">
            <Array as="points">
              <mxPoint x="1730" y="205" />
              <mxPoint x="1730" y="325" />
            </Array>
          </mxGeometry>
        </mxCell>
        <mxCell id="MtNc6Gnwf36n3SFKJCyT-28" style="edgeStyle=orthogonalEdgeStyle;rounded=1;orthogonalLoop=1;jettySize=auto;html=1;curved=0;endArrow=none;endFill=0;entryX=0;entryY=0.5;entryDx=0;entryDy=0;" parent="1" target="MtNc6Gnwf36n3SFKJCyT-15" edge="1">
          <mxGeometry relative="1" as="geometry">
            <mxPoint x="1636" y="205" as="sourcePoint" />
            <mxPoint x="1772" y="325" as="targetPoint" />
            <Array as="points">
              <mxPoint x="1730" y="205" />
              <mxPoint x="1730" y="85" />
            </Array>
          </mxGeometry>
        </mxCell>
        <mxCell id="MtNc6Gnwf36n3SFKJCyT-36" style="edgeStyle=orthogonalEdgeStyle;rounded=1;orthogonalLoop=1;jettySize=auto;html=1;curved=0;endArrow=none;endFill=0;" parent="1" target="MtNc6Gnwf36n3SFKJCyT-9" edge="1">
          <mxGeometry relative="1" as="geometry">
            <mxPoint x="1620" y="260" as="sourcePoint" />
            <Array as="points">
              <mxPoint x="1620" y="280" />
              <mxPoint x="1620" y="280" />
            </Array>
          </mxGeometry>
        </mxCell>
        <mxCell id="MtNc6Gnwf36n3SFKJCyT-6" value="Utente Non Loggato" style="shape=umlActor;verticalLabelPosition=bottom;verticalAlign=top;html=1;outlineConnect=0;" parent="1" vertex="1">
          <mxGeometry x="1605" y="175" width="29" height="60" as="geometry" />
        </mxCell>
        <mxCell id="MtNc6Gnwf36n3SFKJCyT-7" value="Cambiare lingua" style="ellipse;whiteSpace=wrap;html=1;fontFamily=Helvetica;fontSize=11;fontColor=default;labelBackgroundColor=default;" parent="1" vertex="1">
          <mxGeometry x="1550" y="50" width="139" height="70" as="geometry" />
        </mxCell>
        <mxCell id="MtNc6Gnwf36n3SFKJCyT-9" value="Eseguire login" style="ellipse;whiteSpace=wrap;html=1;fontFamily=Helvetica;fontSize=11;fontColor=default;labelBackgroundColor=default;" parent="1" vertex="1">
          <mxGeometry x="1550" y="300" width="139" height="70" as="geometry" />
        </mxCell>
        <mxCell id="MtNc6Gnwf36n3SFKJCyT-12" value="Servizio SSO" style="shape=umlActor;verticalLabelPosition=bottom;verticalAlign=top;html=1;" parent="1" vertex="1">
          <mxGeometry x="1605" y="415" width="29" height="60" as="geometry" />
        </mxCell>
        <mxCell id="MtNc6Gnwf36n3SFKJCyT-15" value="Visualizzare città" style="ellipse;whiteSpace=wrap;html=1;fontFamily=Helvetica;fontSize=11;fontColor=default;labelBackgroundColor=default;" parent="1" vertex="1">
          <mxGeometry x="1770" y="50" width="139" height="70" as="geometry" />
        </mxCell>
        <mxCell id="stk3XyZbQFhjofUTJlJp-5" value="&lt;i&gt;&amp;lt;&amp;lt;include&amp;gt;&amp;gt;&lt;/i&gt;" style="edgeStyle=orthogonalEdgeStyle;rounded=1;orthogonalLoop=1;jettySize=auto;html=1;curved=0;dashed=1;dashPattern=8 8;endArrow=open;endFill=0;entryX=0.5;entryY=1;entryDx=0;entryDy=0;" parent="1" source="MtNc6Gnwf36n3SFKJCyT-16" target="stk3XyZbQFhjofUTJlJp-4" edge="1">
          <mxGeometry relative="1" as="geometry" />
        </mxCell>
        <mxCell id="MtNc6Gnwf36n3SFKJCyT-16" value="Visualizzare zona" style="ellipse;whiteSpace=wrap;html=1;fontFamily=Helvetica;fontSize=11;fontColor=default;labelBackgroundColor=default;" parent="1" vertex="1">
          <mxGeometry x="1770" y="290" width="139" height="70" as="geometry" />
        </mxCell>
        <mxCell id="MtNc6Gnwf36n3SFKJCyT-29" value="&lt;i&gt;&amp;lt;&amp;lt;extends&amp;gt;&amp;gt;&lt;/i&gt;" style="edgeStyle=orthogonalEdgeStyle;rounded=1;orthogonalLoop=1;jettySize=auto;html=1;entryX=0.5;entryY=1;entryDx=0;entryDy=0;curved=0;dashed=1;dashPattern=12 12;endArrow=open;endFill=0;exitX=0.5;exitY=0;exitDx=0;exitDy=0;" parent="1" source="stk3XyZbQFhjofUTJlJp-4" target="MtNc6Gnwf36n3SFKJCyT-15" edge="1">
          <mxGeometry x="-0.2" relative="1" as="geometry">
            <Array as="points">
              <mxPoint x="1840" y="150" />
              <mxPoint x="1840" y="125" />
            </Array>
            <mxPoint as="offset" />
            <mxPoint x="2090" y="290" as="sourcePoint" />
          </mxGeometry>
        </mxCell>
        <mxCell id="MtNc6Gnwf36n3SFKJCyT-31" value="&amp;lt;&amp;lt;extends&amp;gt;&amp;gt;" style="edgeStyle=orthogonalEdgeStyle;rounded=1;orthogonalLoop=1;jettySize=auto;html=1;entryX=1;entryY=0.5;entryDx=0;entryDy=0;curved=0;dashed=1;dashPattern=12 12;endArrow=open;endFill=0;fontStyle=2" parent="1" source="MtNc6Gnwf36n3SFKJCyT-30" target="MtNc6Gnwf36n3SFKJCyT-16" edge="1">
          <mxGeometry x="-0.0009" relative="1" as="geometry">
            <mxPoint as="offset" />
          </mxGeometry>
        </mxCell>
        <mxCell id="MtNc6Gnwf36n3SFKJCyT-30" value="Visualizzare&amp;nbsp;&lt;div&gt;elenco strutture&lt;/div&gt;" style="ellipse;whiteSpace=wrap;html=1;fontFamily=Helvetica;fontSize=11;fontColor=default;labelBackgroundColor=default;" parent="1" vertex="1">
          <mxGeometry x="1990" y="290" width="139" height="70" as="geometry" />
        </mxCell>
        <mxCell id="stk3XyZbQFhjofUTJlJp-4" value="interagire con la mappa" style="ellipse;whiteSpace=wrap;html=1;fontFamily=Helvetica;fontSize=11;fontColor=default;labelBackgroundColor=default;" parent="1" vertex="1">
          <mxGeometry x="1770" y="170" width="139" height="70" as="geometry" />
        </mxCell>
        <mxCell id="fQcVt27ra6nBvP-CkPzu-3" style="edgeStyle=orthogonalEdgeStyle;rounded=1;orthogonalLoop=1;jettySize=auto;html=1;entryX=1;entryY=0.5;entryDx=0;entryDy=0;endArrow=none;endFill=0;curved=0;" parent="1" source="fQcVt27ra6nBvP-CkPzu-2" target="stk3XyZbQFhjofUTJlJp-4" edge="1">
          <mxGeometry relative="1" as="geometry" />
        </mxCell>
        <mxCell id="fQcVt27ra6nBvP-CkPzu-2" value="OpenStreetMap" style="shape=umlActor;verticalLabelPosition=bottom;verticalAlign=top;html=1;outlineConnect=0;" parent="1" vertex="1">
          <mxGeometry x="2045" y="175" width="29" height="60" as="geometry" />
        </mxCell>
        <mxCell id="fQcVt27ra6nBvP-CkPzu-10" style="edgeStyle=orthogonalEdgeStyle;rounded=1;orthogonalLoop=1;jettySize=auto;html=1;entryX=0.5;entryY=0;entryDx=0;entryDy=0;entryPerimeter=0;curved=0;endArrow=none;endFill=0;" parent="1" source="MtNc6Gnwf36n3SFKJCyT-9" target="MtNc6Gnwf36n3SFKJCyT-12" edge="1">
          <mxGeometry relative="1" as="geometry" />
        </mxCell>
      </root>
    </mxGraphModel>
  </diagram>
  <diagram id="DGZMH7HSNUKwfujKjLHd" name="sondaggista">
    <mxGraphModel dx="2194" dy="1202" grid="1" gridSize="10" guides="1" tooltips="1" connect="1" arrows="1" fold="1" page="1" pageScale="1" pageWidth="1654" pageHeight="2336" background="#FFFFFF" math="0" shadow="0">
      <root>
        <mxCell id="0" />
        <mxCell id="1" parent="0" />
        <mxCell id="-p2JKVbY8Ej-ciZWx3Up-2" style="edgeStyle=orthogonalEdgeStyle;shape=connector;curved=0;rounded=1;orthogonalLoop=1;jettySize=auto;html=1;entryX=0;entryY=0.5;entryDx=0;entryDy=0;strokeColor=default;align=center;verticalAlign=middle;fontFamily=Helvetica;fontSize=11;fontColor=default;labelBackgroundColor=default;endArrow=none;endFill=0;" parent="1" source="-p2JKVbY8Ej-ciZWx3Up-10" target="-p2JKVbY8Ej-ciZWx3Up-20" edge="1">
          <mxGeometry relative="1" as="geometry">
            <Array as="points">
              <mxPoint x="800" y="330" />
              <mxPoint x="800" y="210" />
            </Array>
          </mxGeometry>
        </mxCell>
        <mxCell id="-p2JKVbY8Ej-ciZWx3Up-8" style="edgeStyle=orthogonalEdgeStyle;shape=connector;curved=0;rounded=1;orthogonalLoop=1;jettySize=auto;html=1;entryX=0.5;entryY=1;entryDx=0;entryDy=0;strokeColor=default;align=center;verticalAlign=middle;fontFamily=Helvetica;fontSize=11;fontColor=default;labelBackgroundColor=default;endArrow=none;endFill=0;" parent="1" source="-p2JKVbY8Ej-ciZWx3Up-10" target="-p2JKVbY8Ej-ciZWx3Up-27" edge="1">
          <mxGeometry relative="1" as="geometry" />
        </mxCell>
        <mxCell id="VZEbAGAZ8Im2hsswQuoq-5" style="edgeStyle=orthogonalEdgeStyle;rounded=1;orthogonalLoop=1;jettySize=auto;html=1;entryX=1;entryY=0.5;entryDx=0;entryDy=0;curved=0;endArrow=none;startFill=0;" parent="1" source="-p2JKVbY8Ej-ciZWx3Up-10" target="VZEbAGAZ8Im2hsswQuoq-1" edge="1">
          <mxGeometry relative="1" as="geometry" />
        </mxCell>
        <mxCell id="VZEbAGAZ8Im2hsswQuoq-6" style="edgeStyle=orthogonalEdgeStyle;rounded=1;orthogonalLoop=1;jettySize=auto;html=1;entryX=1;entryY=0.5;entryDx=0;entryDy=0;curved=0;endArrow=none;startFill=0;" parent="1" source="-p2JKVbY8Ej-ciZWx3Up-10" target="-p2JKVbY8Ej-ciZWx3Up-29" edge="1">
          <mxGeometry relative="1" as="geometry" />
        </mxCell>
        <mxCell id="VZEbAGAZ8Im2hsswQuoq-12" style="edgeStyle=orthogonalEdgeStyle;shape=connector;curved=0;rounded=1;orthogonalLoop=1;jettySize=auto;html=1;strokeColor=default;align=center;verticalAlign=middle;fontFamily=Helvetica;fontSize=11;fontColor=default;fontStyle=2;labelBackgroundColor=default;endArrow=none;endFill=0;startFill=0;" parent="1" source="-p2JKVbY8Ej-ciZWx3Up-10" target="VZEbAGAZ8Im2hsswQuoq-7" edge="1">
          <mxGeometry relative="1" as="geometry" />
        </mxCell>
        <mxCell id="-p2JKVbY8Ej-ciZWx3Up-10" value="Sondaggista" style="shape=umlActor;verticalLabelPosition=bottom;verticalAlign=top;html=1;outlineConnect=0;" parent="1" vertex="1">
          <mxGeometry x="741" y="300" width="30" height="60" as="geometry" />
        </mxCell>
        <mxCell id="VZEbAGAZ8Im2hsswQuoq-11" style="edgeStyle=orthogonalEdgeStyle;shape=connector;curved=0;rounded=1;orthogonalLoop=1;jettySize=auto;html=1;entryX=1;entryY=0.5;entryDx=0;entryDy=0;dashed=1;dashPattern=8 8;strokeColor=default;align=center;verticalAlign=middle;fontFamily=Helvetica;fontSize=11;fontColor=default;fontStyle=2;labelBackgroundColor=default;endArrow=open;endFill=0;" parent="1" source="-p2JKVbY8Ej-ciZWx3Up-11" target="VZEbAGAZ8Im2hsswQuoq-7" edge="1">
          <mxGeometry relative="1" as="geometry">
            <Array as="points">
              <mxPoint x="1070" y="490" />
              <mxPoint x="1070" y="330" />
            </Array>
          </mxGeometry>
        </mxCell>
        <mxCell id="-p2JKVbY8Ej-ciZWx3Up-11" value="Aggiungere sondaggi&lt;div&gt;&amp;nbsp;al sistema&lt;/div&gt;" style="ellipse;whiteSpace=wrap;html=1;fontFamily=Helvetica;fontSize=11;fontColor=default;labelBackgroundColor=default;" parent="1" vertex="1">
          <mxGeometry x="1090" y="455" width="139" height="70" as="geometry" />
        </mxCell>
        <mxCell id="VZEbAGAZ8Im2hsswQuoq-10" style="edgeStyle=orthogonalEdgeStyle;shape=connector;curved=0;rounded=1;orthogonalLoop=1;jettySize=auto;html=1;entryX=1;entryY=0.5;entryDx=0;entryDy=0;dashed=1;dashPattern=8 8;strokeColor=default;align=center;verticalAlign=middle;fontFamily=Helvetica;fontSize=11;fontColor=default;fontStyle=2;labelBackgroundColor=default;endArrow=open;endFill=0;" parent="1" source="-p2JKVbY8Ej-ciZWx3Up-12" target="VZEbAGAZ8Im2hsswQuoq-7" edge="1">
          <mxGeometry relative="1" as="geometry">
            <Array as="points">
              <mxPoint x="1070" y="380" />
              <mxPoint x="1070" y="330" />
            </Array>
          </mxGeometry>
        </mxCell>
        <mxCell id="-p2JKVbY8Ej-ciZWx3Up-12" value="Cancellare sondaggi" style="ellipse;whiteSpace=wrap;html=1;fontFamily=Helvetica;fontSize=11;fontColor=default;labelBackgroundColor=default;" parent="1" vertex="1">
          <mxGeometry x="1090" y="345" width="140" height="70" as="geometry" />
        </mxCell>
        <mxCell id="-p2JKVbY8Ej-ciZWx3Up-13" value="&amp;lt;&amp;lt;include&amp;gt;&amp;gt;" style="edgeStyle=orthogonalEdgeStyle;rounded=1;orthogonalLoop=1;jettySize=auto;html=1;dashed=1;dashPattern=12 12;curved=0;endArrow=open;endFill=0;fontStyle=2;exitX=0.397;exitY=0.014;exitDx=0;exitDy=0;exitPerimeter=0;" parent="1" source="-p2JKVbY8Ej-ciZWx3Up-15" target="-p2JKVbY8Ej-ciZWx3Up-25" edge="1">
          <mxGeometry relative="1" as="geometry" />
        </mxCell>
        <mxCell id="-p2JKVbY8Ej-ciZWx3Up-14" value="&amp;lt;&amp;lt;extends&amp;gt;&amp;gt;" style="edgeStyle=orthogonalEdgeStyle;rounded=1;orthogonalLoop=1;jettySize=auto;html=1;fontStyle=2;dashed=1;dashPattern=12 12;curved=0;endArrow=none;endFill=0;startArrow=open;startFill=0;exitX=0.601;exitY=0.014;exitDx=0;exitDy=0;exitPerimeter=0;" parent="1" source="-p2JKVbY8Ej-ciZWx3Up-15" target="-p2JKVbY8Ej-ciZWx3Up-24" edge="1">
          <mxGeometry relative="1" as="geometry" />
        </mxCell>
        <mxCell id="-p2JKVbY8Ej-ciZWx3Up-15" value="Aggiungere voti&amp;nbsp;&lt;div&gt;ai sondaggi&lt;/div&gt;" style="ellipse;whiteSpace=wrap;html=1;fontFamily=Helvetica;fontSize=11;fontColor=default;labelBackgroundColor=default;" parent="1" vertex="1">
          <mxGeometry x="280" y="170" width="140" height="70" as="geometry" />
        </mxCell>
        <mxCell id="-p2JKVbY8Ej-ciZWx3Up-16" style="edgeStyle=orthogonalEdgeStyle;shape=connector;curved=0;rounded=1;orthogonalLoop=1;jettySize=auto;html=1;strokeColor=default;align=center;verticalAlign=middle;fontFamily=Helvetica;fontSize=11;fontColor=default;labelBackgroundColor=default;endArrow=none;endFill=0;" parent="1" source="-p2JKVbY8Ej-ciZWx3Up-17" target="-p2JKVbY8Ej-ciZWx3Up-15" edge="1">
          <mxGeometry relative="1" as="geometry" />
        </mxCell>
        <mxCell id="-p2JKVbY8Ej-ciZWx3Up-17" value="Cittadino" style="shape=umlActor;verticalLabelPosition=bottom;verticalAlign=top;html=1;fontFamily=Helvetica;fontSize=12;fontColor=default;labelBackgroundColor=default;" parent="1" vertex="1">
          <mxGeometry x="160" y="175" width="30" height="60" as="geometry" />
        </mxCell>
        <mxCell id="-p2JKVbY8Ej-ciZWx3Up-18" value="&lt;i&gt;&lt;font style=&quot;font-size: 12px;&quot;&gt;&amp;lt;&amp;lt;extend&amp;gt;&amp;gt;&lt;/font&gt;&lt;/i&gt;" style="edgeStyle=orthogonalEdgeStyle;shape=connector;curved=0;rounded=1;orthogonalLoop=1;jettySize=auto;html=1;entryX=0;entryY=0.5;entryDx=0;entryDy=0;dashed=1;dashPattern=12 12;strokeColor=default;align=center;verticalAlign=middle;fontFamily=Helvetica;fontSize=11;fontColor=default;labelBackgroundColor=default;startArrow=open;startFill=0;endArrow=none;endFill=0;exitX=1;exitY=0.5;exitDx=0;exitDy=0;" parent="1" source="-p2JKVbY8Ej-ciZWx3Up-19" target="-p2JKVbY8Ej-ciZWx3Up-21" edge="1">
          <mxGeometry x="0.1111" relative="1" as="geometry">
            <Array as="points" />
            <mxPoint as="offset" />
          </mxGeometry>
        </mxCell>
        <mxCell id="VZEbAGAZ8Im2hsswQuoq-8" value="" style="edgeStyle=orthogonalEdgeStyle;rounded=1;orthogonalLoop=1;jettySize=auto;html=1;entryX=1;entryY=0.5;entryDx=0;entryDy=0;curved=0;dashed=1;dashPattern=8 8;endArrow=open;endFill=0;fontStyle=2" parent="1" source="-p2JKVbY8Ej-ciZWx3Up-19" target="VZEbAGAZ8Im2hsswQuoq-7" edge="1">
          <mxGeometry x="0.6314" relative="1" as="geometry">
            <Array as="points">
              <mxPoint x="1070" y="160" />
              <mxPoint x="1070" y="330" />
            </Array>
            <mxPoint as="offset" />
          </mxGeometry>
        </mxCell>
        <mxCell id="-p2JKVbY8Ej-ciZWx3Up-19" value="Creare nuovi sondaggi" style="ellipse;whiteSpace=wrap;html=1;fontFamily=Helvetica;fontSize=11;fontColor=default;labelBackgroundColor=default;" parent="1" vertex="1">
          <mxGeometry x="1090" y="125" width="140" height="70" as="geometry" />
        </mxCell>
        <mxCell id="-p2JKVbY8Ej-ciZWx3Up-20" value="Visualizzare i sondaggi" style="ellipse;whiteSpace=wrap;html=1;fontFamily=Helvetica;fontSize=11;fontColor=default;labelBackgroundColor=default;" parent="1" vertex="1">
          <mxGeometry x="830" y="175" width="140" height="70" as="geometry" />
        </mxCell>
        <mxCell id="-p2JKVbY8Ej-ciZWx3Up-21" value="Caricare sondaggi&amp;nbsp;&lt;div&gt;da file&lt;/div&gt;" style="ellipse;whiteSpace=wrap;html=1;fontFamily=Helvetica;fontSize=11;fontColor=default;labelBackgroundColor=default;" parent="1" vertex="1">
          <mxGeometry x="1320" y="125" width="140" height="70" as="geometry" />
        </mxCell>
        <mxCell id="-p2JKVbY8Ej-ciZWx3Up-22" style="edgeStyle=orthogonalEdgeStyle;shape=connector;curved=0;rounded=1;orthogonalLoop=1;jettySize=auto;html=1;strokeColor=default;align=center;verticalAlign=middle;fontFamily=Helvetica;fontSize=11;fontColor=default;labelBackgroundColor=default;endArrow=none;endFill=0;startArrow=block;startFill=0;" parent="1" source="-p2JKVbY8Ej-ciZWx3Up-23" edge="1">
          <mxGeometry relative="1" as="geometry">
            <mxPoint x="756" y="382" as="targetPoint" />
          </mxGeometry>
        </mxCell>
        <mxCell id="-p2JKVbY8Ej-ciZWx3Up-23" value="Utente Non Loggato" style="shape=umlActor;verticalLabelPosition=bottom;verticalAlign=top;html=1;outlineConnect=0;" parent="1" vertex="1">
          <mxGeometry x="742" y="455" width="29" height="60" as="geometry" />
        </mxCell>
        <mxCell id="-p2JKVbY8Ej-ciZWx3Up-24" value="Inserire età del cittadino" style="ellipse;whiteSpace=wrap;html=1;fontFamily=Helvetica;fontSize=11;fontColor=default;labelBackgroundColor=default;" parent="1" vertex="1">
          <mxGeometry x="380" y="50" width="140" height="70" as="geometry" />
        </mxCell>
        <mxCell id="-p2JKVbY8Ej-ciZWx3Up-25" value="Inserire circoscrizione&lt;div&gt;e voto&lt;/div&gt;" style="ellipse;whiteSpace=wrap;html=1;fontFamily=Helvetica;fontSize=11;fontColor=default;labelBackgroundColor=default;" parent="1" vertex="1">
          <mxGeometry x="190" y="50" width="140" height="70" as="geometry" />
        </mxCell>
        <mxCell id="VZEbAGAZ8Im2hsswQuoq-9" value="&#xa;&lt;span style=&quot;color: rgb(0, 0, 0); font-family: Helvetica; font-size: 11px; font-style: italic; font-variant-ligatures: normal; font-variant-caps: normal; font-weight: 400; letter-spacing: normal; orphans: 2; text-align: center; text-indent: 0px; text-transform: none; widows: 2; word-spacing: 0px; -webkit-text-stroke-width: 0px; white-space: nowrap; background-color: rgb(255, 255, 255); text-decoration-thickness: initial; text-decoration-style: initial; text-decoration-color: initial; display: inline !important; float: none;&quot;&gt;&amp;lt;&amp;lt;extends&amp;gt;&amp;gt;&lt;/span&gt;&#xa;&#xa;" style="edgeStyle=orthogonalEdgeStyle;shape=connector;curved=0;rounded=1;orthogonalLoop=1;jettySize=auto;html=1;entryX=1;entryY=0.5;entryDx=0;entryDy=0;dashed=1;dashPattern=8 8;strokeColor=default;align=center;verticalAlign=middle;fontFamily=Helvetica;fontSize=11;fontColor=default;fontStyle=2;labelBackgroundColor=default;endArrow=open;endFill=0;" parent="1" source="-p2JKVbY8Ej-ciZWx3Up-26" target="VZEbAGAZ8Im2hsswQuoq-7" edge="1">
          <mxGeometry x="0.5566" y="8" relative="1" as="geometry">
            <Array as="points">
              <mxPoint x="1070" y="270" />
              <mxPoint x="1070" y="330" />
            </Array>
            <mxPoint as="offset" />
          </mxGeometry>
        </mxCell>
        <mxCell id="-p2JKVbY8Ej-ciZWx3Up-26" value="Salvare sondaggi" style="ellipse;whiteSpace=wrap;html=1;fontFamily=Helvetica;fontSize=11;fontColor=default;labelBackgroundColor=default;" parent="1" vertex="1">
          <mxGeometry x="1090" y="235" width="140" height="70" as="geometry" />
        </mxCell>
        <mxCell id="-p2JKVbY8Ej-ciZWx3Up-27" value="Eseguire logout" style="ellipse;whiteSpace=wrap;html=1;fontFamily=Helvetica;fontSize=11;fontColor=default;labelBackgroundColor=default;" parent="1" vertex="1">
          <mxGeometry x="686" y="55" width="140" height="70" as="geometry" />
        </mxCell>
        <mxCell id="VZEbAGAZ8Im2hsswQuoq-3" value="&lt;i&gt;&amp;lt;&amp;lt;extends&amp;gt;&amp;gt;&lt;/i&gt;" style="edgeStyle=orthogonalEdgeStyle;rounded=1;orthogonalLoop=1;jettySize=auto;html=1;curved=0;endArrow=open;endFill=0;dashed=1;dashPattern=8 8;" parent="1" source="-p2JKVbY8Ej-ciZWx3Up-28" target="VZEbAGAZ8Im2hsswQuoq-1" edge="1">
          <mxGeometry x="0.5122" relative="1" as="geometry">
            <Array as="points">
              <mxPoint x="440" y="330" />
              <mxPoint x="440" y="265" />
            </Array>
            <mxPoint as="offset" />
          </mxGeometry>
        </mxCell>
        <mxCell id="-p2JKVbY8Ej-ciZWx3Up-28" value="Rimuovere voti&amp;nbsp;&lt;div&gt;dai sondaggi&lt;/div&gt;" style="ellipse;whiteSpace=wrap;html=1;fontFamily=Helvetica;fontSize=11;fontColor=default;labelBackgroundColor=default;" parent="1" vertex="1">
          <mxGeometry x="280" y="295" width="140" height="70" as="geometry" />
        </mxCell>
        <mxCell id="-p2JKVbY8Ej-ciZWx3Up-29" value="Visualizzare i voti" style="ellipse;whiteSpace=wrap;html=1;fontFamily=Helvetica;fontSize=11;fontColor=default;labelBackgroundColor=default;" parent="1" vertex="1">
          <mxGeometry x="540" y="360" width="140" height="70" as="geometry" />
        </mxCell>
        <mxCell id="VZEbAGAZ8Im2hsswQuoq-1" value="Gestire i voti" style="ellipse;whiteSpace=wrap;html=1;fontFamily=Helvetica;fontSize=11;fontColor=default;labelBackgroundColor=default;" parent="1" vertex="1">
          <mxGeometry x="540" y="230" width="140" height="70" as="geometry" />
        </mxCell>
        <mxCell id="VZEbAGAZ8Im2hsswQuoq-4" value="&lt;i&gt;&amp;lt;&amp;lt;extends&amp;gt;&amp;gt;&lt;/i&gt;" style="edgeStyle=orthogonalEdgeStyle;rounded=1;orthogonalLoop=1;jettySize=auto;html=1;curved=0;endArrow=open;endFill=0;dashed=1;dashPattern=8 8;exitX=1;exitY=0.5;exitDx=0;exitDy=0;entryX=0;entryY=0.5;entryDx=0;entryDy=0;" parent="1" source="-p2JKVbY8Ej-ciZWx3Up-15" target="VZEbAGAZ8Im2hsswQuoq-1" edge="1">
          <mxGeometry x="0.5" relative="1" as="geometry">
            <mxPoint x="380" y="340" as="sourcePoint" />
            <mxPoint x="520" y="275" as="targetPoint" />
            <Array as="points">
              <mxPoint x="440" y="205" />
              <mxPoint x="440" y="265" />
            </Array>
            <mxPoint as="offset" />
          </mxGeometry>
        </mxCell>
        <mxCell id="VZEbAGAZ8Im2hsswQuoq-7" value="Gestire i sondaggi" style="ellipse;whiteSpace=wrap;html=1;fontFamily=Helvetica;fontSize=11;fontColor=default;labelBackgroundColor=default;" parent="1" vertex="1">
          <mxGeometry x="830" y="295" width="140" height="70" as="geometry" />
        </mxCell>
      </root>
    </mxGraphModel>
  </diagram>
  <diagram id="syeuZ5srDRBqUGm3TRMa" name="analista">
    <mxGraphModel dx="1426" dy="781" grid="1" gridSize="10" guides="1" tooltips="1" connect="1" arrows="1" fold="1" page="1" pageScale="1" pageWidth="2336" pageHeight="1654" background="#FFFFFF" math="0" shadow="0">
      <root>
        <mxCell id="0" />
        <mxCell id="1" parent="0" />
        <mxCell id="Xm9q-Pac63TCy0FAnyLE-1" style="edgeStyle=orthogonalEdgeStyle;shape=connector;curved=0;rounded=1;orthogonalLoop=1;jettySize=auto;html=1;entryX=0;entryY=0.5;entryDx=0;entryDy=0;strokeColor=default;align=center;verticalAlign=middle;fontFamily=Helvetica;fontSize=11;fontColor=default;labelBackgroundColor=default;endArrow=none;endFill=0;" parent="1" source="Xm9q-Pac63TCy0FAnyLE-6" target="Xm9q-Pac63TCy0FAnyLE-8" edge="1">
          <mxGeometry relative="1" as="geometry" />
        </mxCell>
        <mxCell id="69KT1fYimzONdwD2aMPD-1" style="edgeStyle=orthogonalEdgeStyle;rounded=0;orthogonalLoop=1;jettySize=auto;html=1;endArrow=block;endFill=0;" parent="1" source="Xm9q-Pac63TCy0FAnyLE-6" edge="1">
          <mxGeometry relative="1" as="geometry">
            <mxPoint x="1635.5" y="830" as="targetPoint" />
          </mxGeometry>
        </mxCell>
        <mxCell id="gHocJxsoFCx9chSfGXaF-1" style="edgeStyle=orthogonalEdgeStyle;rounded=1;orthogonalLoop=1;jettySize=auto;html=1;entryX=0;entryY=0.5;entryDx=0;entryDy=0;curved=0;endArrow=none;endFill=0;" parent="1" source="Xm9q-Pac63TCy0FAnyLE-6" target="Xm9q-Pac63TCy0FAnyLE-14" edge="1">
          <mxGeometry relative="1" as="geometry" />
        </mxCell>
        <mxCell id="gHocJxsoFCx9chSfGXaF-5" style="edgeStyle=orthogonalEdgeStyle;shape=connector;curved=0;rounded=1;orthogonalLoop=1;jettySize=auto;html=1;entryX=0;entryY=0.5;entryDx=0;entryDy=0;strokeColor=default;align=center;verticalAlign=middle;fontFamily=Helvetica;fontSize=11;fontColor=default;labelBackgroundColor=default;endArrow=none;endFill=0;" parent="1" source="Xm9q-Pac63TCy0FAnyLE-6" target="gHocJxsoFCx9chSfGXaF-4" edge="1">
          <mxGeometry relative="1" as="geometry" />
        </mxCell>
        <mxCell id="gHocJxsoFCx9chSfGXaF-8" style="edgeStyle=orthogonalEdgeStyle;shape=connector;curved=0;rounded=1;orthogonalLoop=1;jettySize=auto;html=1;entryX=0;entryY=0.5;entryDx=0;entryDy=0;strokeColor=default;align=center;verticalAlign=middle;fontFamily=Helvetica;fontSize=11;fontColor=default;labelBackgroundColor=default;endArrow=none;endFill=0;" parent="1" source="Xm9q-Pac63TCy0FAnyLE-6" target="EDUEzZE8j4vmdUdos0K0-1" edge="1">
          <mxGeometry relative="1" as="geometry" />
        </mxCell>
        <mxCell id="Xm9q-Pac63TCy0FAnyLE-6" value="Analista" style="shape=umlActor;verticalLabelPosition=bottom;verticalAlign=top;html=1;outlineConnect=0;" parent="1" vertex="1">
          <mxGeometry x="1621" y="895" width="29" height="60" as="geometry" />
        </mxCell>
        <mxCell id="gHocJxsoFCx9chSfGXaF-2" value="&amp;lt;&amp;lt;include&amp;gt;&amp;gt;" style="edgeStyle=orthogonalEdgeStyle;shape=connector;curved=0;rounded=1;orthogonalLoop=1;jettySize=auto;html=1;entryX=0;entryY=0.5;entryDx=0;entryDy=0;strokeColor=default;align=center;verticalAlign=middle;fontFamily=Helvetica;fontSize=11;fontColor=default;labelBackgroundColor=default;endArrow=open;endFill=0;dashed=1;dashPattern=12 12;fontStyle=2" parent="1" source="Xm9q-Pac63TCy0FAnyLE-8" target="Xm9q-Pac63TCy0FAnyLE-12" edge="1">
          <mxGeometry relative="1" as="geometry" />
        </mxCell>
        <mxCell id="Xm9q-Pac63TCy0FAnyLE-8" value="Analizzare storico dei dati" style="ellipse;whiteSpace=wrap;html=1;fontFamily=Helvetica;fontSize=11;fontColor=default;labelBackgroundColor=default;" parent="1" vertex="1">
          <mxGeometry x="1770" y="890" width="139" height="70" as="geometry" />
        </mxCell>
        <mxCell id="Xm9q-Pac63TCy0FAnyLE-12" value="Visualizzare&lt;span style=&quot;background-color: light-dark(#ffffff, var(--ge-dark-color, #121212)); color: light-dark(rgb(0, 0, 0), rgb(255, 255, 255));&quot;&gt;&amp;nbsp;grafici&lt;/span&gt;&lt;div&gt;&lt;div&gt;degli attributi&lt;/div&gt;&lt;/div&gt;" style="ellipse;whiteSpace=wrap;html=1;fontFamily=Helvetica;fontSize=11;fontColor=default;labelBackgroundColor=default;" parent="1" vertex="1">
          <mxGeometry x="1990" y="890" width="139" height="70" as="geometry" />
        </mxCell>
        <mxCell id="Xm9q-Pac63TCy0FAnyLE-14" value="Interagire con la tabella" style="ellipse;whiteSpace=wrap;html=1;fontFamily=Helvetica;fontSize=11;fontColor=default;labelBackgroundColor=default;" parent="1" vertex="1">
          <mxGeometry x="1770" y="1010" width="139" height="70" as="geometry" />
        </mxCell>
        <mxCell id="Xm9q-Pac63TCy0FAnyLE-16" value="Utente Non Loggato" style="shape=umlActor;verticalLabelPosition=bottom;verticalAlign=top;html=1;outlineConnect=0;" parent="1" vertex="1">
          <mxGeometry x="1621" y="750" width="29" height="60" as="geometry" />
        </mxCell>
        <mxCell id="EDUEzZE8j4vmdUdos0K0-1" value="Eseguire logout" style="ellipse;whiteSpace=wrap;html=1;fontFamily=Helvetica;fontSize=11;fontColor=default;labelBackgroundColor=default;" parent="1" vertex="1">
          <mxGeometry x="1770" y="1130" width="139" height="70" as="geometry" />
        </mxCell>
        <mxCell id="gHocJxsoFCx9chSfGXaF-7" value="&amp;lt;&amp;lt;include&amp;gt;&amp;gt;" style="edgeStyle=orthogonalEdgeStyle;shape=connector;curved=0;rounded=1;orthogonalLoop=1;jettySize=auto;html=1;strokeColor=default;align=center;verticalAlign=middle;fontFamily=Helvetica;fontSize=11;fontColor=default;labelBackgroundColor=default;endArrow=open;endFill=0;fontStyle=2;dashed=1;dashPattern=12 12;" parent="1" source="gHocJxsoFCx9chSfGXaF-4" target="gHocJxsoFCx9chSfGXaF-6" edge="1">
          <mxGeometry relative="1" as="geometry" />
        </mxCell>
        <mxCell id="gHocJxsoFCx9chSfGXaF-4" value="Visualizzzare&amp;nbsp;&lt;div&gt;attributi completi&lt;/div&gt;" style="ellipse;whiteSpace=wrap;html=1;fontFamily=Helvetica;fontSize=11;fontColor=default;labelBackgroundColor=default;" parent="1" vertex="1">
          <mxGeometry x="1770" y="770" width="139" height="70" as="geometry" />
        </mxCell>
        <mxCell id="gHocJxsoFCx9chSfGXaF-6" value="Selezionare&lt;div&gt;categoria&amp;nbsp;&lt;span style=&quot;background-color: light-dark(#ffffff, var(--ge-dark-color, #121212)); color: light-dark(rgb(0, 0, 0), rgb(255, 255, 255));&quot;&gt;di attributi&lt;/span&gt;&lt;/div&gt;" style="ellipse;whiteSpace=wrap;html=1;fontFamily=Helvetica;fontSize=11;fontColor=default;labelBackgroundColor=default;" parent="1" vertex="1">
          <mxGeometry x="1990" y="770" width="139" height="70" as="geometry" />
        </mxCell>
      </root>
    </mxGraphModel>
  </diagram>
</mxfile>
